<svg width="104" height="102" viewBox="0 0 104 102" fill="none" xmlns="http://www.w3.org/2000/svg">
<path d="M81.6043 0.0230713H22.3773C16.4423 0.0230713 10.7503 2.38475 6.55364 6.58856C2.35694 10.7924 -0.000732422 16.494 -0.000732422 22.439L-0.000732422 79.1625C-0.000732422 85.1076 2.35694 90.8092 6.55364 95.013C10.7503 99.2168 16.4423 101.579 22.3773 101.579H81.6043C87.5393 101.579 93.2313 99.2168 97.428 95.013C101.625 90.8092 103.982 85.1076 103.982 79.1625V22.439C103.982 16.494 101.625 10.7924 97.428 6.58856C93.2313 2.38475 87.5393 0.0230713 81.6043 0.0230713V0.0230713ZM55.1493 71.5936H45.2406C44.5473 71.5936 44.0534 71.5676 43.7761 71.1032C42.8446 69.2847 41.9131 67.4793 40.9859 65.6869C40.0272 63.8427 39.0392 62.0139 38.0224 60.2012C36.966 58.3249 35.9304 56.4369 34.9159 54.5375H34.8466C33.9075 56.414 32.9427 58.2775 31.9524 60.1274C30.9559 61.9892 29.9637 63.8424 28.9889 65.6826C28.0149 67.5242 27.0169 69.3529 25.995 71.1683C25.8044 71.5893 25.4794 71.6327 25.0115 71.6327H15.4581C15.2718 71.6327 15.1678 71.7064 15.1461 71.5198C15.1211 71.3492 15.158 71.1751 15.2501 71.0294L28.7116 48.8738L15.5967 26.6618C15.4537 26.4752 15.4321 26.3233 15.5274 26.1975C15.5787 26.1372 15.6435 26.09 15.7166 26.0599C15.7897 26.0297 15.8689 26.0173 15.9477 26.0239H25.7827C25.9971 26.0149 26.2109 26.0504 26.411 26.128C26.577 26.2236 26.7192 26.3557 26.8269 26.5143C27.6631 28.3805 28.5946 30.2423 29.6171 32.1042C30.6396 33.966 31.6751 35.8062 32.7193 37.6246C33.7634 39.4431 34.7296 41.2832 35.6135 43.1451H35.6828C36.6056 41.2355 37.5458 39.3736 38.5077 37.5552C39.4695 35.7367 40.4443 33.9096 41.4365 32.0694C42.4374 30.225 43.3992 28.3935 44.3307 26.5837C44.3825 26.4092 44.4779 26.2508 44.608 26.1237C44.7809 26.0374 44.9746 26.0013 45.1669 26.0195H54.3044C54.4072 25.9945 54.5157 26.0109 54.6065 26.0653C54.6973 26.1197 54.7631 26.2077 54.7897 26.3103C54.8079 26.3841 54.805 26.4615 54.7812 26.5337C54.7574 26.6058 54.7138 26.6698 54.6554 26.7183L54.6597 26.7356L41.6835 48.1881L55.5652 70.9686C55.6562 71.1292 55.6779 71.3158 55.6345 71.4938C55.5912 71.65 55.4309 71.5459 55.1493 71.5936V71.5936ZM88.4282 69.7708C86.1605 70.717 83.799 71.4197 81.3833 71.867C79.1726 72.2782 76.9293 72.4889 74.6808 72.4963C71.4711 72.5435 68.291 71.8765 65.3699 70.5433C62.6485 69.281 60.3733 67.2214 58.845 64.6366C57.1654 61.6208 56.3441 58.2012 56.4707 54.7502C56.4449 51.5431 57.2639 48.3859 58.845 45.5972C60.474 42.7562 62.869 40.4323 65.7556 38.8919C69.4033 36.9824 73.5081 36.1231 77.614 36.4094C77.9866 36.4311 78.4285 36.4658 78.9397 36.5136V22.7472C78.9397 22.4217 79.0784 22.2568 79.36 22.2568H88.1466C88.2442 22.2431 88.3433 22.2688 88.422 22.3282C88.5008 22.3876 88.5529 22.4758 88.5668 22.5736C88.5712 22.6082 88.5712 22.6432 88.5668 22.6777V63.9813C88.5668 64.7755 88.6015 65.6348 88.6708 66.5679C88.7401 67.4967 88.8008 68.3343 88.8441 69.0808C88.8532 69.2245 88.8182 69.3676 88.7439 69.4909C88.6695 69.6143 88.5594 69.7119 88.4282 69.7708V69.7708ZM77.7829 44.5469C78.1729 44.5859 78.5585 44.6554 78.9354 44.7552V63.8294C78.4359 63.9782 77.9216 64.0714 77.4017 64.1071C76.7978 64.1559 76.1921 64.1791 75.5863 64.1766C74.3655 64.1822 73.1517 63.9932 71.9902 63.6167C70.8921 63.2704 69.8894 62.6732 69.0613 61.8721C68.1975 61.0001 67.5311 59.9521 67.1073 58.7994C66.5881 57.3663 66.3398 55.8489 66.3751 54.3248C66.2838 52.3822 66.7823 50.4575 67.8049 48.8044C68.7277 47.433 69.9885 46.3263 71.466 45.5885C72.9824 44.8377 74.6548 44.4514 76.3488 44.4688C76.8297 44.4774 77.3063 44.4991 77.7829 44.5469Z" fill="white"/>
</svg>
