<svg width="105" height="102" viewBox="0 0 105 102" fill="none" xmlns="http://www.w3.org/2000/svg">
<path d="M37.0338 45.2659C36.6006 43.9205 36.2106 42.6186 35.7774 41.2732C35.3441 39.9278 34.9542 38.6692 34.6076 37.4106C34.261 36.1954 33.9577 35.067 33.6544 34.0254H33.5677C33.1778 35.8916 32.7012 37.7578 32.0946 39.624C31.4448 41.7072 30.7949 43.8771 30.1016 46.0471C29.5384 48.2605 28.8452 50.3003 28.1953 52.1231H39.2002C38.9402 51.2117 38.5936 50.1267 38.2037 48.9983C37.8137 47.8265 37.4238 46.5679 37.0338 45.2659V45.2659ZM74.2078 44.0073C71.8248 43.8771 69.5719 45.1357 68.4454 47.3057C67.9255 48.3039 67.6222 49.3455 67.4922 50.4305H76.6297C77.7562 50.4305 78.5794 50.4305 79.0993 50.3871C79.4459 50.3437 79.7925 50.2569 80.0958 50.0399V49.6059C80.079 48.8502 79.913 48.1052 79.6075 47.414C79.3019 46.7228 78.8628 46.099 78.3155 45.5786C77.7682 45.0582 77.1234 44.6514 76.4184 44.3817C75.7134 44.1121 74.9621 43.9848 74.2078 44.0073ZM85.6026 0H18.4469C8.2652 0 0.0332031 8.24595 0.0332031 18.4449V83.1105C0.0332031 93.3095 8.2652 101.555 18.4469 101.555H85.6026C95.7843 101.555 104.016 93.3095 104.016 83.1105V18.4449C104.016 8.24595 95.7843 0 85.6026 0ZM55.1009 71.6573H46.0457C45.7424 71.7007 45.4391 71.4794 45.3525 71.1799L41.7997 60.764H25.6824L22.3896 71.0063C22.3029 71.3969 21.9563 71.6573 21.5664 71.6139H13.421C12.9444 71.6139 12.8145 71.3535 12.9444 70.8327L26.8955 30.7704C27.0255 30.3364 27.1555 29.9458 27.3288 29.425C27.5021 28.5136 27.5887 27.5588 27.5887 26.604C27.5454 26.387 27.7187 26.1701 27.9353 26.1267H39.1568C39.4601 26.1267 39.6767 26.2569 39.7201 26.4738L55.5342 70.9586C55.6641 71.436 55.5385 71.6573 55.1009 71.6573ZM89.1164 54.3365C89.0254 55.1567 88.982 55.7687 88.9387 56.1593C88.8954 56.4631 88.6398 56.7235 88.3321 56.7235C88.0722 56.7235 87.5956 56.7669 86.9024 56.8146C86.2135 56.9014 85.386 56.9405 84.3938 56.9405C83.3973 56.9405 82.3531 56.7669 81.231 56.7669H67.4965C67.6655 58.1123 68.1031 59.4577 68.8397 60.6295C69.6064 61.7975 70.7072 62.7066 71.9981 63.2378C73.7312 63.9756 75.6419 64.3662 77.5482 64.3228C79.0647 64.275 80.5767 64.1492 82.0498 63.8454C83.3733 63.6762 84.6703 63.3408 85.9102 62.8472C86.1268 62.6779 86.2568 62.7604 86.2568 63.1944V69.8389C86.2568 70.0081 86.2135 70.1861 86.1658 70.3553C86.088 70.476 85.9862 70.5794 85.8669 70.6591C84.4804 71.2667 83.0507 71.7007 81.5343 71.9611C79.4936 72.3517 77.4616 72.5253 75.3819 72.4819C72.0848 72.4819 69.3162 71.9611 67.0633 70.9629C64.9437 70.0383 63.0718 68.6257 61.5998 66.84C60.2177 65.1474 59.2169 63.2378 58.6103 61.1546C58.0041 59.096 57.6991 56.9602 57.7048 54.8139C57.7048 52.4746 58.0514 50.1701 58.788 47.9133C59.4812 45.7433 60.5643 43.747 62.0374 41.9676C63.4672 40.2316 65.2392 38.8428 67.2756 37.8446C69.3162 36.8464 71.7382 36.4992 74.5111 36.4992C76.8213 36.4452 79.1148 36.9047 81.2266 37.8446C83.003 38.6258 84.5628 39.7976 85.7759 41.3166C86.9024 42.7922 87.8122 44.4413 88.3798 46.2641C88.9387 48.0001 89.1987 49.7795 89.1987 51.5589C89.1987 52.6005 89.1554 53.5119 89.1164 54.3365V54.3365Z" fill="white"/>
</svg>
