<svg width="129" height="104" viewBox="0 0 129 104" fill="none" xmlns="http://www.w3.org/2000/svg">
<path d="M67.2804 58.1015C67.5186 53.8588 69.6027 50.1205 72.7462 47.4708C75.8292 44.8684 79.9784 43.2773 84.5063 43.2773C89.0291 43.2773 93.1789 44.8684 96.2639 47.4708C99.4054 50.1205 101.489 53.8588 101.73 58.0975C101.968 62.4568 100.211 66.5068 97.1279 69.5086C93.9845 72.5622 89.5131 74.4784 84.5063 74.4784C79.4995 74.4784 75.0191 72.5622 71.8776 69.5086C68.7927 66.5068 67.0396 62.4568 67.2804 58.1015V58.1015Z" fill="white"/>
<path d="M39.9327 66.8181C39.9626 68.4813 40.4945 71.7151 41.2931 74.2399C42.9707 79.5846 45.8165 84.5295 49.7765 88.8868C53.8403 93.366 58.8442 96.9639 64.6246 99.518C70.6997 102.201 77.2822 103.568 84.1194 103.557C90.9457 103.547 97.5287 102.153 103.604 99.4503C109.384 96.8713 114.383 93.258 118.44 88.7767C122.398 84.401 125.239 79.4477 126.922 74.1029C127.767 71.4024 128.302 68.6616 128.516 65.9113C128.726 63.1981 128.637 60.4703 128.252 57.7764C127.499 52.4924 125.665 47.5346 122.842 43.0149C120.26 38.8618 116.932 35.2261 112.974 32.1656L112.983 32.1591L73.043 1.58107C73.0065 1.55418 72.9771 1.5253 72.9386 1.5004C70.3186 -0.505436 65.9116 -0.498464 63.0299 1.51136C60.1162 3.54408 59.7826 6.9059 62.3756 9.02577L62.3646 9.03723L79.0232 22.5443L28.2494 22.598H28.1815C23.9848 22.603 19.9509 25.3483 19.1518 28.8177C18.3312 32.3523 21.182 35.2844 25.5455 35.3003L25.5385 35.3158L51.2743 35.266L5.35047 70.4134C5.29204 70.4563 5.22861 70.5011 5.17467 70.5439C0.842594 73.8514 -0.557814 79.3516 2.17058 82.8319C4.93994 86.3715 10.8282 86.378 15.2053 82.8523L40.2688 62.4001C40.2688 62.4001 39.9032 65.1608 39.9327 66.8181ZM104.337 76.0634C99.1728 81.3096 91.9425 84.284 84.1199 84.2999C76.2853 84.3134 69.0555 81.3654 63.8914 76.1287C61.3678 73.5766 59.5144 70.64 58.3707 67.5122C57.2466 64.4342 56.814 61.1475 57.1036 57.8844C57.3763 54.6665 58.3372 51.5975 59.8705 48.8203C61.3768 46.0909 63.4514 43.624 66.0135 41.5375C71.0328 37.4591 77.424 35.2505 84.1079 35.2416C90.7993 35.2326 97.1856 37.4207 102.21 41.4862C104.767 43.5632 106.84 46.0212 108.346 48.7466C109.9 51.5384 110.847 54.6251 111.125 57.8058C111.41 61.0668 110.976 64.3506 109.853 67.4266C108.707 70.5638 106.86 73.5004 104.337 76.0634V76.0634Z" fill="white"/>
</svg>
