<svg width="93" height="104" viewBox="0 0 93 104" fill="none" xmlns="http://www.w3.org/2000/svg">
<path fill-rule="evenodd" clip-rule="evenodd" d="M92.7432 30.452C92.7424 28.7104 92.3692 27.1714 91.6145 25.8509C90.8731 24.5517 89.7629 23.4631 88.2737 22.6024C83.0061 19.571 77.7363 16.5436 72.4665 13.5161L72.4636 13.5145C65.4364 9.47745 58.4092 5.44042 51.3873 1.39398C48.0742 -0.514952 44.862 -0.444999 41.5736 1.49134C38.6281 3.22485 28.578 8.99113 19.4522 14.2272L19.4502 14.2283C13.4174 17.6896 7.78878 20.9191 4.88373 22.5985C1.87745 24.3357 0.414599 26.994 0.413876 30.4487C0.411528 37.5621 0.411528 44.6755 0.411528 51.789C0.411528 58.9024 0.411528 66.0158 0.40918 73.1292C0.40918 74.8326 0.767216 76.342 1.48871 77.6426C2.23043 78.9808 3.3562 80.0993 4.87976 80.9795C7.76938 82.6498 13.3539 85.8536 19.3506 89.2937L19.36 89.2991L19.3635 89.3011C28.5131 94.55 38.618 100.347 41.5722 102.087C44.862 104.024 48.0743 104.093 51.3883 102.184C58.5209 98.0737 65.6589 93.9733 72.7972 89.8727C77.9579 86.9082 83.1187 83.9436 88.2776 80.9751C89.8012 80.0953 90.927 78.9761 91.6687 77.639C92.3891 76.338 92.7479 74.829 92.7479 73.1252C92.7479 73.1252 92.7479 44.6792 92.7432 30.452ZM73.3503 41.9336V46.7921H78.2183V41.9336H80.6523V46.7921H85.5203V49.2214H80.6523V54.0795H85.5203V56.5088H80.6523V61.3673H78.2183V56.5088H73.3503V61.3673H70.9164V56.5088H66.0487V54.0795H70.9164V49.2214H66.0487V46.7921H70.9164V41.9336H73.3503ZM78.2183 49.221H73.3503V54.0795H78.2183V49.2214V49.221ZM76.5394 34.6455C70.6016 24.4158 59.5162 17.5337 46.8191 17.5337L46.8188 17.5333C27.8627 17.5333 12.4964 32.8704 12.4964 51.7888C12.4964 57.9955 14.1508 63.8157 17.0421 68.8361C22.9651 79.1199 34.0819 86.0446 46.8191 86.0446L47.2014 86.0424C59.7507 85.9057 70.6843 79.0449 76.5571 68.9017L61.6407 60.2773C61.6646 60.236 61.6883 60.1945 61.7118 60.1529L61.6406 60.2773L61.6407 60.2773C58.6916 65.3966 53.1601 68.8465 46.8191 68.8465C40.4662 68.8465 34.9281 65.3846 31.9821 60.2517C30.5022 57.676 29.7249 54.7579 29.728 51.7888C29.728 42.3685 37.3801 34.7313 46.8188 34.7313L47.0139 34.7324C53.2038 34.8017 58.5993 38.1583 61.5423 43.1319L76.4816 34.5471L76.5394 34.6455Z" fill="white"/>
</svg>
