<svg width="70" height="104" viewBox="0 0 70 104" fill="none" xmlns="http://www.w3.org/2000/svg">
<path d="M17.8222 103.578C27.3142 103.578 35.0179 95.8445 35.0179 86.3153V69.0522H17.8222C8.33023 69.0522 0.626587 76.7861 0.626587 86.3153C0.626587 95.8445 8.33023 103.578 17.8222 103.578Z" fill="white"/>
<path d="M0.626587 51.7892C0.626587 42.26 8.33023 34.5261 17.8222 34.5261H35.0179V69.0523H17.8222C8.33023 69.0523 0.626587 61.3184 0.626587 51.7892Z" fill="white"/>
<path d="M0.626587 17.2631C0.626587 7.73386 8.33023 0 17.8222 0H35.0179V34.5262H17.8222C8.33023 34.5262 0.626587 26.7923 0.626587 17.2631Z" fill="white"/>
<path d="M35.0178 0H52.2135C61.7055 0 69.4091 7.73386 69.4091 17.2631C69.4091 26.7923 61.7055 34.5262 52.2135 34.5262H35.0178V0Z" fill="white"/>
<path d="M69.4092 51.7892C69.4092 61.3184 61.7056 69.0523 52.2136 69.0523C42.7216 69.0523 35.0179 61.3184 35.0179 51.7892C35.0179 42.26 42.7216 34.5261 52.2136 34.5261C61.7056 34.5261 69.4092 42.26 69.4092 51.7892Z" fill="white"/>
</svg>
