<svg width="104" height="104" viewBox="0 0 104 104" fill="none" xmlns="http://www.w3.org/2000/svg">
<path d="M102.031 47.3654L56.6216 1.96212C55.9998 1.34008 55.2616 0.84662 54.4491 0.509952C53.6366 0.173284 52.7657 0 51.8862 0C51.0068 0 50.1359 0.173284 49.3234 0.509952C48.5109 0.84662 47.7727 1.34008 47.1509 1.96212L37.7257 11.3873L49.686 23.3475C51.0965 22.8659 52.614 22.7906 54.0654 23.1301C55.5167 23.4696 56.8433 24.2103 57.8939 25.2676C58.9444 26.3249 59.6766 27.6563 60.0067 29.1098C60.3369 30.5632 60.2518 32.0803 59.7611 33.4877L71.2858 45.0189C72.9909 44.4185 74.8496 44.4167 76.5558 45.0137C78.262 45.6107 79.7141 46.771 80.6729 48.3034C81.6317 49.8358 82.0401 51.6491 81.8308 53.4446C81.6215 55.2401 80.807 56.9108 79.5215 58.1816C78.2201 59.491 76.5044 60.308 74.6675 60.4929C72.8307 60.6778 70.9866 60.2193 69.4503 59.1956C67.914 58.1719 66.7807 56.6465 66.2441 54.8801C65.7075 53.1137 65.8009 51.2157 66.5083 49.5105L55.7636 38.7593V67.0543C57.3968 67.8627 58.7036 69.2065 59.4661 70.8616C60.2287 72.5167 60.401 74.3832 59.9542 76.1499C59.5075 77.9166 58.4687 79.4769 57.0111 80.5706C55.5535 81.6643 53.765 82.2254 51.9438 82.1604C50.1227 82.0953 48.3788 81.4081 47.0029 80.2132C45.627 79.0183 44.7022 77.3879 44.3826 75.5938C44.063 73.7997 44.368 71.9502 45.2467 70.3537C46.1254 68.7572 47.5247 67.5101 49.2115 66.8203V38.2653C48.2383 37.8665 47.3537 37.2791 46.6087 36.5368C45.8636 35.7946 45.2729 34.9122 44.8704 33.9406C44.468 32.969 44.2619 31.9273 44.2639 30.8757C44.266 29.824 44.4762 28.7831 44.8824 27.8131L33.0977 16.0219L1.96212 47.1574C1.34008 47.7792 0.84662 48.5174 0.509952 49.3299C0.173284 50.1424 0 51.0133 0 51.8928C0 52.7722 0.173284 53.6431 0.509952 54.4556C0.84662 55.2681 1.34008 56.0063 1.96212 56.6281L47.3719 102.038C47.9937 102.66 48.7319 103.153 49.5444 103.49C50.3569 103.827 51.2278 104 52.1073 104C52.9867 104 53.8576 103.827 54.6701 103.49C55.4826 103.153 56.2208 102.66 56.8426 102.038L102.038 56.8426C103.293 55.5861 103.997 53.883 103.997 52.1073C103.997 50.3316 103.293 48.6284 102.038 47.3719" fill="white"/>
</svg>
