<svg width="24" height="24" viewBox="0 0 24 24" fill="none" xmlns="http://www.w3.org/2000/svg">
<path d="M10.68 0.0666573C4.68 0.719991 0 5.81332 0 12C0 15.1826 1.26428 18.2348 3.51472 20.4853C5.76516 22.7357 8.8174 24 12 24C18.1733 24 23.2667 19.3333 23.9333 13.3333C24.0533 12.28 22.8933 11.44 21.88 12.0667C20.7916 12.7614 19.5364 13.1508 18.2459 13.1942C16.9553 13.2375 15.6768 12.9332 14.5442 12.3131C13.4116 11.6929 12.4665 10.7798 11.8078 9.66914C11.1491 8.55852 10.801 7.29126 10.8 5.99999C10.8 4.58666 11.2133 3.25332 11.92 2.14666C12.52 1.25332 11.8667 -0.026676 10.68 0.0666573V0.0666573Z" fill="black"/>
</svg>
