<svg width="104" height="107" viewBox="0 0 104 107" fill="none" xmlns="http://www.w3.org/2000/svg">
<path d="M94.0689 38.7074C91.8341 33.3736 88.5829 28.5255 84.4964 24.4334C80.4222 20.3341 75.5826 17.075 70.2523 14.841C64.7918 12.5413 58.9249 11.3625 53 11.3746H52.8007C46.7744 11.4045 40.9472 12.5998 35.4588 14.9506C30.1742 17.2075 25.38 20.4724 21.3441 24.5629C17.2973 28.6458 14.0833 33.4769 11.8812 38.7871C9.59533 44.3091 8.43706 50.2325 8.47458 56.2088C8.50446 63.1217 10.158 69.9848 13.2459 76.1207V91.2613C13.2459 93.7914 15.2978 95.8434 17.8179 95.8434H32.9386C39.1032 98.954 45.9059 100.591 52.8107 100.625H53.0199C58.9765 100.625 64.7439 99.4691 70.1826 97.208C75.4859 95.0006 80.3075 91.7795 84.3769 87.7252C88.4808 83.6512 91.7082 78.8898 93.9693 73.5807C96.3101 68.0822 97.5054 62.2351 97.5353 56.1988C97.5552 50.1326 96.3798 44.2457 94.0689 38.7074ZM33.1179 60.7809C30.4882 60.7809 28.3466 58.6393 28.3466 55.9996C28.3466 53.36 30.4882 51.2184 33.1179 51.2184C35.7476 51.2184 37.8892 53.36 37.8892 55.9996C37.8892 58.6393 35.7576 60.7809 33.1179 60.7809ZM53 60.7809C50.3703 60.7809 48.2287 58.6393 48.2287 55.9996C48.2287 53.36 50.3703 51.2184 53 51.2184C55.6296 51.2184 57.7713 53.36 57.7713 55.9996C57.7713 58.6393 55.6296 60.7809 53 60.7809ZM72.882 60.7809C70.2523 60.7809 68.1107 58.6393 68.1107 55.9996C68.1107 53.36 70.2523 51.2184 72.882 51.2184C75.5117 51.2184 77.6533 53.36 77.6533 55.9996C77.6533 58.6393 75.5117 60.7809 72.882 60.7809Z" fill="white"/>
<path d="M78.0228 15.0589C82.1092 19.151 85.3604 23.9991 87.5952 29.3329C89.9061 34.8712 91.0815 40.7581 91.0616 46.8243C91.0317 52.8606 89.8364 58.7077 87.4956 64.2061C85.2345 69.5153 82.0071 74.2767 77.9032 78.3507C73.8338 82.405 69.0122 85.6261 63.7089 87.8335C58.2702 90.0946 52.5028 91.2501 46.5462 91.2501H46.337C39.4322 91.2162 32.6295 89.5795 26.4649 86.4688H11.3442C8.82413 86.4688 6.77217 84.4169 6.77217 81.8868V66.7462C3.68428 60.6102 2.03077 53.7472 2.00088 46.8343C1.96337 40.858 3.12164 34.9346 5.40752 29.4126C7.60961 24.1024 10.8236 19.2713 14.8704 15.1884C18.9063 11.0979 23.7005 7.83297 28.9851 5.57607C34.4735 3.22529 40.3007 2.02997 46.327 2.00009H46.5263C52.4512 1.98802 58.3182 3.16683 63.7786 5.4665C69.1089 7.7005 73.9486 10.9596 78.0228 15.0589Z" stroke="#005FFE" stroke-width="2.5"/>
</svg>
