<svg width="104" height="102" viewBox="0 0 104 102" fill="none" xmlns="http://www.w3.org/2000/svg">
<path d="M45.6387 45.2659C45.2054 43.9205 44.8155 42.6186 44.3822 41.2732C43.949 39.9278 43.559 38.6692 43.2124 37.4106C42.8658 36.1954 42.5625 35.067 42.2592 34.0254H42.1726C41.7826 35.8916 41.3061 37.7578 40.6995 39.624C40.0496 41.7072 39.3997 43.8771 38.7065 46.0471C38.0999 48.2605 37.45 50.3003 36.8001 52.1231H47.805C47.545 51.2074 47.1984 50.1267 46.8085 48.994C46.4186 47.8265 46.0286 46.5679 45.6387 45.2659V45.2659ZM85.5855 0H18.4298C8.24811 0 0.0161133 8.24595 0.0161133 18.4449V83.1105C0.0161133 93.3095 8.24811 101.555 18.4298 101.555H85.5855C95.7672 101.555 103.999 93.3095 103.999 83.1105V18.4449C103.999 8.24595 95.7672 0 85.5855 0ZM63.7057 71.7398H54.6462C54.3473 71.7832 54.044 71.5662 53.9573 71.2624L50.4046 60.9333H34.2872L30.9944 71.1322C30.9077 71.5228 30.5611 71.7832 30.1712 71.7441H22.0259C21.5493 71.7441 21.4193 71.4794 21.5493 70.9629L35.5003 30.727C35.6303 30.293 35.7603 29.8156 35.9336 29.2948C36.1069 28.3834 36.1936 27.4286 36.1936 26.4738C36.1502 26.2569 36.3235 26.0399 36.5402 25.9965H47.7617C48.1083 25.9965 48.2816 26.1267 48.3249 26.3436L64.139 71.0454C64.269 71.5185 64.139 71.7398 63.7057 71.7398V71.7398ZM78.4367 71.0888C78.4367 71.5662 78.2677 71.7832 77.8778 71.7832H69.3815C68.9482 71.7832 68.7316 71.5185 68.7316 71.0888V37.671C68.7316 37.237 68.9092 37.0634 69.2992 37.0634H77.8778C78.2677 37.0634 78.4367 37.2804 78.4367 37.671V71.0888V71.0888ZM77.5312 31.8988C77.0195 32.4194 76.4025 32.8242 75.7218 33.0862C75.041 33.3482 74.3121 33.4613 73.5841 33.4178C72.1544 33.4612 70.7679 32.897 69.7238 31.8988C68.7311 30.8116 68.2024 29.3786 68.2507 27.906C68.2073 26.4304 68.7706 25.0417 69.8061 24.0435C70.8546 23.0453 72.241 22.5245 73.6708 22.5245C75.3648 22.5245 76.656 23.0453 77.6135 24.0435C78.5666 25.0851 79.0866 26.4738 79.0432 27.906C79.0866 29.3816 78.5666 30.8138 77.5312 31.8988V31.8988Z" fill="white"/>
</svg>
