<svg width="104" height="104" viewBox="0 0 104 104" fill="none" xmlns="http://www.w3.org/2000/svg">
<path fill-rule="evenodd" clip-rule="evenodd" d="M0.193237 0H103.772V103.578H0.193237V0ZM27.4278 86.5576L35.354 81.7606C36.8834 84.4719 38.2745 86.766 41.6112 86.766C44.8096 86.766 46.8266 85.515 46.8266 80.6484V47.5526H56.5601V80.786C56.5601 90.8675 50.6505 95.4565 42.0284 95.4565C34.2418 95.4565 29.7219 91.4238 27.4274 86.5568L27.4278 86.5576ZM69.7724 80.9259L61.847 85.5145L61.8466 85.5149C64.697 91.147 70.5375 95.4576 79.5759 95.4576C88.8231 95.4576 95.7062 90.6606 95.7062 81.8994C95.7062 73.7652 91.048 70.1501 82.7739 66.6037L80.3406 65.5611C76.1691 63.7533 74.3614 62.5706 74.3614 59.6506C74.3614 57.2869 76.1691 55.4792 79.02 55.4792C81.8012 55.4792 83.6082 56.661 85.2772 59.6506L92.8562 54.7832C89.6582 49.1516 85.2084 46.9958 79.0204 46.9958C70.3291 46.9958 64.767 52.5583 64.767 59.859C64.767 67.7852 69.4252 71.5399 76.4479 74.5287L78.8808 75.5726C83.3306 77.5187 85.9727 78.701 85.9727 82.0381C85.9727 84.8194 83.401 86.8359 79.3675 86.8359C74.5706 86.8359 71.8589 84.333 69.7724 80.9259Z" fill="white"/>
</svg>
