<svg width="81" height="104" viewBox="0 0 81 104" fill="none" xmlns="http://www.w3.org/2000/svg">
<path d="M46.8422 0C52.4013 13.1839 26.9096 21.26 24.5385 32.2486C22.3696 42.3328 39.6416 54.1621 39.6575 54.1621C37.0207 49.9905 35.1015 46.4724 32.4687 39.9661C28.008 28.9775 59.6496 19.0647 46.8422 0ZM63.694 18.3037C63.694 18.3037 41.4061 19.7181 40.276 34.3643C39.7606 40.8865 46.1602 44.309 46.3466 49.0582C46.5052 52.9309 42.5044 56.1502 42.5044 56.1502C42.5044 56.1502 49.6773 54.8474 51.9216 48.9307C54.3997 42.3647 47.092 37.8824 47.8335 32.6192C48.5472 27.595 63.694 18.3037 63.694 18.3037V18.3037ZM69.146 52.0424C66.8066 51.9349 64.1738 52.8074 61.8343 54.5326C66.4497 53.5087 70.3871 56.4172 70.3871 59.7639C70.3871 67.2663 59.7289 74.3304 59.7289 74.3304C59.7289 74.3304 76.2079 72.4777 76.2079 60.1385C76.2079 55.0466 73.0358 52.2297 69.146 52.0424V52.0424ZM25.4068 52.1699C19.6574 52.3692 8.18239 53.3214 8.18239 57.7718C8.18239 63.9673 34.9152 64.4494 54.031 60.6365C54.031 60.6365 59.2332 56.9949 60.5972 55.6562C48.0675 58.2698 19.4592 58.6762 19.4592 56.4012C19.4592 54.3175 28.6265 52.1699 28.6265 52.1699C28.6265 52.1699 27.326 52.1062 25.4068 52.1699V52.1699ZM23.6701 63.6247C20.5258 63.6247 15.8628 66.083 15.8628 68.4775C15.8628 73.3025 39.5345 77.0078 57.0048 69.9716L50.9303 66.2384C39.0825 70.131 17.1951 68.8361 23.6701 63.6247ZM26.644 74.4539C22.3537 74.4539 19.5821 77.1792 19.5821 79.1872C19.5821 85.3628 45.2165 85.9724 55.391 79.6853L48.9477 75.45C41.3585 78.737 22.2625 79.2191 26.644 74.4539ZM12.2704 80.0598C5.272 79.9203 0.747803 83.1077 0.747803 85.7812C0.747803 100.021 72.4926 99.3396 72.4926 84.7851C72.4926 82.3746 69.6575 81.2232 68.6504 80.6773C74.5068 94.5904 10.042 93.5027 10.042 85.2832C10.042 83.4185 14.8121 81.5499 19.2094 82.4225L15.4941 80.3028C14.4264 80.1467 13.3493 80.0641 12.2704 80.0558V80.0598ZM80.0501 89.6459C69.146 100.244 41.5488 104.041 13.7573 97.4909C41.5449 109.165 79.9113 102.67 80.0501 89.6459Z" fill="white"/>
</svg>
