<svg width="63" height="63" viewBox="0 0 63 63" fill="none" xmlns="http://www.w3.org/2000/svg">
<path fill-rule="evenodd" clip-rule="evenodd" d="M0.791657 5.92259C0.791657 4.56175 1.33225 3.25664 2.29452 2.29437C3.25678 1.33211 4.56189 0.791511 5.92274 0.791511H57.0717C57.7461 0.790409 58.414 0.922336 59.0374 1.17974C59.6607 1.43714 60.2272 1.81496 60.7043 2.29157C61.1814 2.76819 61.5599 3.33423 61.818 3.95729C62.076 4.58035 62.2087 5.2482 62.2083 5.92259V57.0715C62.2091 57.746 62.0768 58.4141 61.8191 59.0375C61.5614 59.6608 61.1833 60.2272 60.7065 60.7043C60.2296 61.1814 59.6634 61.5598 59.0402 61.8179C58.417 62.0759 57.749 62.2086 57.0744 62.2082H5.92274C5.24868 62.2082 4.58123 62.0754 3.95851 61.8173C3.3358 61.5593 2.77003 61.1811 2.29353 60.7043C1.81703 60.2276 1.43913 59.6616 1.18144 59.0387C0.923739 58.4159 0.791291 57.7484 0.791657 57.0743V5.92259ZM25.1015 24.208H33.4179V28.3843C34.6183 25.9835 37.6891 23.8228 42.3037 23.8228C51.1505 23.8228 53.2471 28.6049 53.2471 37.3791V53.6322H44.2942V39.3779C44.2942 34.3808 43.0938 31.5613 40.0453 31.5613C35.8159 31.5613 34.0572 34.6014 34.0572 39.3779V53.6322H25.1015V24.208ZM9.74732 53.2497H18.703V23.8228H9.74732V53.2469V53.2497ZM19.9844 14.225C20.0013 14.9918 19.8648 15.7543 19.583 16.4676C19.3013 17.1809 18.8798 17.8308 18.3435 18.3791C17.8072 18.9274 17.1667 19.363 16.4598 19.6604C15.7528 19.9578 14.9935 20.111 14.2266 20.111C13.4596 20.111 12.7003 19.9578 11.9933 19.6604C11.2864 19.363 10.6459 18.9274 10.1096 18.3791C9.57326 17.8308 9.15184 17.1809 8.87007 16.4676C8.5883 15.7543 8.45186 14.9918 8.46874 14.225C8.50188 12.7199 9.12307 11.2876 10.1993 10.2348C11.2754 9.18209 12.7211 8.59259 14.2266 8.59259C15.732 8.59259 17.1777 9.18209 18.2539 10.2348C19.33 11.2876 19.9512 12.7199 19.9844 14.225V14.225Z" fill="white"/>
</svg>
