<svg width="105" height="102" viewBox="0 0 105 102" fill="none" xmlns="http://www.w3.org/2000/svg">
<path d="M42.7264 35.2652C41.1234 34.6142 39.3903 34.3537 37.6139 34.3971C36.4874 34.3971 35.4909 34.3971 34.6677 34.4405C33.8012 34.3971 33.1946 34.4405 32.8914 34.484V49.0669C33.4979 49.1103 34.0612 49.1537 34.5811 49.1537H36.8774C38.5671 49.1537 40.2568 48.8933 41.8599 48.3725C43.2463 47.9819 44.4595 47.1572 45.4127 46.0722C46.3225 44.9871 46.7558 43.5115 46.7558 41.6018C46.7991 40.2564 46.4525 38.9109 45.7593 37.7391C45.0368 36.6122 43.9744 35.7455 42.7264 35.2652ZM85.6194 0.0230713H18.4637C8.28204 0.0230713 0.0500488 8.26938 0.0500488 18.4688V83.1328C0.0500488 93.3322 8.28204 101.579 18.4637 101.579H85.6194C95.8011 101.579 104.033 93.3322 104.033 83.1328V18.4688C104.033 8.26938 95.8011 0.0230713 85.6194 0.0230713ZM53.597 50.5859C51.8683 53.0164 49.442 54.8393 46.6258 55.8809C43.6796 56.966 40.4301 57.3566 36.8774 57.3566C35.8376 57.3566 35.1443 57.3566 34.7111 57.3132C34.2778 57.2698 33.6712 57.2698 32.848 57.2698V71.1974C32.8914 71.5012 32.6747 71.7659 32.3714 71.8093H23.9662C23.6195 71.8093 23.4462 71.6314 23.4462 71.2408V26.5849C23.4462 26.281 23.5762 26.1074 23.8795 26.1074C24.616 26.1074 25.3093 26.1074 26.3058 26.064C27.3456 26.0206 28.4288 26.0206 29.5986 25.9772C30.7684 25.9338 32.0248 25.9338 33.368 25.8904C34.7111 25.847 36.0109 25.847 37.3106 25.847C40.8634 25.847 43.8096 26.281 46.2359 27.1925C48.4022 27.9303 50.3952 29.1456 52.0416 30.7514C53.428 32.1403 54.5112 33.8329 55.2044 35.6992C55.85 37.5221 56.1966 39.3883 56.1966 41.3414C56.2009 45.0739 55.3344 48.1555 53.597 50.5859V50.5859ZM84.3197 67.4692C83.1065 69.2052 81.4125 70.5464 79.4671 71.3363C77.3441 72.2434 74.7445 72.7164 71.6207 72.7164C69.632 72.7164 67.678 72.5472 65.7327 72.1566C64.2163 71.8918 62.6998 71.4187 61.3134 70.7677C61.0101 70.5984 60.7892 70.2946 60.8325 69.9474V62.3955C60.8325 62.2697 60.8801 62.0917 61.0101 62.0049C61.1358 61.9181 61.2701 61.9615 61.4001 62.0483C63.0898 63.0466 64.8662 63.7453 66.7725 64.175C68.4146 64.609 70.1476 64.826 71.885 64.826C73.5314 64.826 74.7012 64.6047 75.4811 64.2141C76.1743 63.9102 76.6509 63.1724 76.6509 62.3912C76.6509 61.7792 76.3043 61.2193 75.6111 60.6551C74.9179 60.0952 73.4924 59.4442 71.3694 58.6109C69.1598 57.8297 67.1278 56.788 65.2171 55.4903C63.8614 54.5176 62.7357 53.2582 61.92 51.8012C61.2314 50.428 60.8906 48.9062 60.9278 47.3699C60.9278 45.5036 61.4477 43.7242 62.4052 42.1183C63.4884 40.3822 65.0871 38.9934 66.9501 38.1253C68.9821 37.0881 71.5384 36.6106 74.6146 36.6106C76.3909 36.6106 78.2106 36.7408 79.987 37.0012C81.2868 37.1749 82.5433 37.5221 83.7131 37.9995C83.8821 38.0429 84.0597 38.2165 84.1463 38.3901C84.1897 38.5637 84.233 38.7373 84.233 38.9109V45.9854C84.233 46.159 84.1463 46.3326 84.0164 46.4194C83.6264 46.5062 83.4098 46.5062 83.2365 46.4194C81.9367 45.725 80.5503 45.2475 79.0772 44.9437C77.4741 44.5965 75.871 44.3795 74.2246 44.3795C73.3581 44.3361 72.4482 44.4663 71.6207 44.6833C71.0618 44.8135 70.5809 45.1173 70.2776 45.5514C70.061 45.8986 69.931 46.3326 69.931 46.7232C69.931 47.1138 70.1043 47.5044 70.3686 47.8516C70.7585 48.3291 71.2741 48.7197 71.8417 49.0235C72.8339 49.5443 73.878 50.0217 74.9135 50.4557C77.2575 51.237 79.5104 52.322 81.5901 53.6241C83.0199 54.5312 84.1897 55.7507 85.0085 57.2264C85.7018 58.6066 86.0484 60.1343 86.005 61.6924C86.0527 63.7366 85.4461 65.7722 84.3197 67.4692V67.4692Z" fill="white"/>
</svg>
