<svg width="107" height="104" viewBox="0 0 107 104" fill="none" xmlns="http://www.w3.org/2000/svg">
<path d="M45.2521 36.0889C43.5785 35.4349 41.7875 35.1323 39.9913 35.2C38.3708 35.1663 36.7497 35.1959 35.1317 35.2889V50.2222L36.8704 50.3111H39.2333C40.9721 50.3111 42.7108 50.0444 44.3604 49.5111C45.7871 49.1111 47.0354 48.2667 48.0163 47.1556C48.9525 46.0444 49.3983 44.5333 49.3983 42.5778C49.499 41.1955 49.15 39.8178 48.4031 38.6489C47.6562 37.48 46.5512 36.5823 45.2521 36.0889ZM88.0521 0H18.9479C13.9226 0 9.10314 1.99007 5.54972 5.53243C1.99629 9.07478 0 13.8792 0 18.8889L0 85.1111C0 95.5556 8.47083 104 18.9479 104H88.0521C98.5292 104 107 95.5556 107 85.1111V18.8889C107 8.44444 98.5292 0 88.0521 0ZM56.4425 51.7778C54.6592 54.2667 52.1625 56.1333 49.2646 57.2C46.2329 58.3111 42.8892 58.7111 39.2333 58.7111L37.0042 58.6667L35.0871 58.6222V72.8889C35.0997 72.9624 35.0968 73.0377 35.0784 73.11C35.06 73.1823 35.0267 73.2499 34.9805 73.3086C34.9343 73.3672 34.8762 73.4155 34.8101 73.4504C34.744 73.4853 34.6713 73.506 34.5967 73.5111H25.9475C25.5908 73.5111 25.4125 73.3333 25.4125 72.9333V27.2C25.4125 26.8889 25.5463 26.7111 25.8583 26.7111L28.355 26.6667L31.7433 26.5778L35.6221 26.4889L39.6792 26.4444C43.335 26.4444 46.3667 26.8889 48.8633 27.8222C51.0925 28.5778 53.1433 29.8222 54.8375 31.4667C56.2642 32.8889 57.3788 34.6222 58.0921 36.5333C58.7608 38.4 59.1175 40.3111 59.1175 42.3111C59.1175 46.1333 58.2258 49.2889 56.4425 51.7778V51.7778ZM86.8483 37.7778V46.4444C86.8483 46.8 86.6254 46.9333 86.135 46.9333C83.1935 46.8268 80.2662 47.3892 77.575 48.5778C76.7279 48.9778 75.9254 49.5111 75.3012 50.2222V72.8889C75.3012 73.3333 75.1229 73.5111 74.7217 73.5111H65.9388C65.8567 73.5237 65.7729 73.5197 65.6924 73.4996C65.6118 73.4795 65.5361 73.4435 65.4697 73.3938C65.4033 73.3442 65.3474 73.2818 65.3055 73.2104C65.2635 73.1389 65.2363 73.0598 65.2254 72.9778V48.1778L65.1808 44.8444L65.0917 41.3778C65.0917 40.3556 65.0025 39.3778 64.9133 38.3556C64.8981 38.2503 64.9212 38.1431 64.9785 38.0534C65.0357 37.9637 65.1233 37.8975 65.2254 37.8667H73.1613C73.6071 37.8667 73.9638 38.1778 74.0529 38.5778C74.4558 39.9029 74.6513 41.2821 74.6325 42.6667C75.97 41.1111 77.6196 39.8222 79.4475 38.8444C81.5199 37.6968 83.8535 37.0999 86.2242 37.1111C86.5363 37.0667 86.8038 37.2889 86.8483 37.6V37.7778V37.7778Z" fill="white"/>
</svg>
