<svg width="773" height="573" viewBox="0 0 773 573" fill="none" xmlns="http://www.w3.org/2000/svg">
<path d="M509.701 63.4015C524.447 63.4015 536.402 51.4472 536.402 36.7007C536.402 21.9543 524.447 10 509.701 10C494.954 10 483 21.9543 483 36.7007C483 51.4472 494.954 63.4015 509.701 63.4015Z" fill="#87B4FF"/>
<path d="M676.447 497.152C716.135 466.923 735.091 416.126 723.224 367.67C722.929 366.466 722.618 365.264 722.29 364.066C714.423 335.302 694.958 307.965 666.59 298.774C642.77 291.058 616.77 296.992 591.921 293.923C543.139 287.899 505.32 248.429 478.71 207.104C452.099 165.778 431.648 119.52 396.288 85.3795C338.003 29.1042 242.926 16.988 170.661 53.6191C98.3966 90.2503 52.3647 171.519 54.3279 252.514C56.2911 333.509 104.374 410.946 174.203 452.031C199.855 467.124 229.524 477.817 259.051 474.075C284.671 470.829 307.95 457.063 333.45 452.976C373.541 446.55 413.377 464.676 448.052 485.799C482.728 506.922 516.222 531.959 555.627 541.752C593.888 551.26 641.29 523.93 676.447 497.152Z" fill="#006CEA"/>
<path d="M676.447 497.152C716.135 466.923 735.091 416.126 723.224 367.67C722.929 366.466 722.618 365.264 722.29 364.066C714.423 335.302 694.958 307.965 666.59 298.774C642.77 291.058 616.77 296.992 591.921 293.923C543.139 287.899 505.32 248.429 478.71 207.104C452.099 165.778 431.648 119.52 396.288 85.3795C338.003 29.1042 242.926 16.988 170.661 53.6191C98.3966 90.2503 52.3647 171.519 54.3279 252.514C56.2911 333.509 104.374 410.946 174.203 452.031C199.855 467.124 229.524 477.817 259.051 474.075C284.671 470.829 307.95 457.063 333.45 452.976C373.541 446.55 413.377 464.676 448.052 485.799C482.728 506.922 516.222 531.959 555.627 541.752C593.888 551.26 641.29 523.93 676.447 497.152Z" fill="#0066DE"/>
<path d="M10.9999 434.291C-8.0002 446.081 3.99984 462.981 10.9999 464.241C17.9999 465.5 769.7 464.241 769.7 464.241C779.736 455.258 789.133 445.584 797.82 435.291C797.82 435.291 29.9999 422.5 10.9999 434.291Z" fill="#3F3D56"/>
<path d="M506.43 341.591V427.295C506.431 428.387 506.865 429.435 507.637 430.207C508.41 430.979 509.457 431.414 510.549 431.414H637.553C638.646 431.414 639.693 430.979 640.465 430.207C641.237 429.435 641.672 428.387 641.673 427.295V341.591C641.67 340.5 641.235 339.454 640.463 338.683C639.691 337.912 638.645 337.478 637.553 337.477H510.549C509.458 337.478 508.412 337.912 507.639 338.683C506.867 339.454 506.433 340.5 506.43 341.591V341.591Z" fill="#3F3D56"/>
<path d="M509.409 342.658V426.238C509.41 426.822 509.643 427.381 510.055 427.794C510.468 428.206 511.027 428.438 511.611 428.439H636.496C637.08 428.438 637.639 428.206 638.052 427.794C638.464 427.381 638.697 426.822 638.698 426.238V342.658C638.698 342.073 638.466 341.513 638.053 341.099C637.64 340.686 637.08 340.453 636.496 340.452H511.611C511.026 340.453 510.467 340.686 510.054 341.099C509.641 341.513 509.409 342.073 509.409 342.658V342.658Z" fill="#0075FF"/>
<path d="M503.774 444.01C504.006 444.302 504.302 444.537 504.639 444.698C504.975 444.859 505.344 444.942 505.717 444.94H641.709C642.081 444.939 642.448 444.856 642.784 444.696C643.12 444.535 643.415 444.303 643.65 444.014C643.884 443.725 644.051 443.387 644.138 443.026C644.226 442.664 644.232 442.288 644.155 441.924L642.044 431.897C641.957 431.488 641.768 431.107 641.496 430.79C641.224 430.472 640.877 430.228 640.486 430.079C640.203 429.968 639.902 429.911 639.598 429.911H507.82C507.516 429.911 507.215 429.968 506.932 430.079C506.541 430.228 506.194 430.472 505.922 430.79C505.65 431.107 505.461 431.488 505.374 431.897L503.263 441.924C503.188 442.288 503.195 442.664 503.283 443.025C503.371 443.385 503.539 443.722 503.774 444.01V444.01Z" fill="#2F2E41"/>
<path d="M634.932 434.23H638.144C638.414 434.23 638.632 434.012 638.632 433.742V432.205C638.632 431.936 638.414 431.717 638.144 431.717H634.932C634.662 431.717 634.444 431.936 634.444 432.205V433.742C634.444 434.012 634.662 434.23 634.932 434.23Z" fill="#3F3D56"/>
<path d="M626.555 434.23H629.767C630.037 434.23 630.255 434.012 630.255 433.742V432.205C630.255 431.936 630.037 431.717 629.767 431.717H626.555C626.285 431.717 626.067 431.936 626.067 432.205V433.742C626.067 434.012 626.285 434.23 626.555 434.23Z" fill="#3F3D56"/>
<path d="M618.178 434.23H621.39C621.66 434.23 621.878 434.012 621.878 433.742V432.205C621.878 431.936 621.66 431.717 621.39 431.717H618.178C617.908 431.717 617.69 431.936 617.69 432.205V433.742C617.69 434.012 617.908 434.23 618.178 434.23Z" fill="#3F3D56"/>
<path d="M609.801 434.23H613.013C613.283 434.23 613.501 434.012 613.501 433.742V432.205C613.501 431.936 613.283 431.717 613.013 431.717H609.801C609.531 431.717 609.313 431.936 609.313 432.205V433.742C609.313 434.012 609.531 434.23 609.801 434.23Z" fill="#3F3D56"/>
<path d="M601.424 434.23H604.636C604.906 434.23 605.124 434.012 605.124 433.742V432.205C605.124 431.936 604.906 431.717 604.636 431.717H601.424C601.154 431.717 600.936 431.936 600.936 432.205V433.742C600.936 434.012 601.154 434.23 601.424 434.23Z" fill="#3F3D56"/>
<path d="M593.047 434.23H596.259C596.529 434.23 596.747 434.012 596.747 433.742V432.205C596.747 431.936 596.529 431.717 596.259 431.717H593.047C592.777 431.717 592.559 431.936 592.559 432.205V433.742C592.559 434.012 592.777 434.23 593.047 434.23Z" fill="#3F3D56"/>
<path d="M584.67 434.23H587.882C588.152 434.23 588.37 434.012 588.37 433.742V432.205C588.37 431.936 588.152 431.717 587.882 431.717H584.67C584.4 431.717 584.182 431.936 584.182 432.205V433.742C584.182 434.012 584.4 434.23 584.67 434.23Z" fill="#3F3D56"/>
<path d="M576.293 434.23H579.505C579.775 434.23 579.993 434.012 579.993 433.742V432.205C579.993 431.936 579.775 431.717 579.505 431.717H576.293C576.023 431.717 575.805 431.936 575.805 432.205V433.742C575.805 434.012 576.023 434.23 576.293 434.23Z" fill="#3F3D56"/>
<path d="M567.916 434.23H571.128C571.398 434.23 571.616 434.012 571.616 433.742V432.205C571.616 431.936 571.398 431.717 571.128 431.717H567.916C567.647 431.717 567.428 431.936 567.428 432.205V433.742C567.428 434.012 567.647 434.23 567.916 434.23Z" fill="#3F3D56"/>
<path d="M559.539 434.23H562.751C563.021 434.23 563.239 434.012 563.239 433.742V432.205C563.239 431.936 563.021 431.717 562.751 431.717H559.539C559.27 431.717 559.051 431.936 559.051 432.205V433.742C559.051 434.012 559.27 434.23 559.539 434.23Z" fill="#3F3D56"/>
<path d="M551.162 434.23H554.374C554.644 434.23 554.862 434.012 554.862 433.742V432.205C554.862 431.936 554.644 431.717 554.374 431.717H551.162C550.892 431.717 550.674 431.936 550.674 432.205V433.742C550.674 434.012 550.892 434.23 551.162 434.23Z" fill="#3F3D56"/>
<path d="M542.785 434.23H545.997C546.267 434.23 546.485 434.012 546.485 433.742V432.205C546.485 431.936 546.267 431.717 545.997 431.717H542.785C542.516 431.717 542.297 431.936 542.297 432.205V433.742C542.297 434.012 542.516 434.23 542.785 434.23Z" fill="#3F3D56"/>
<path d="M534.408 434.23H537.62C537.89 434.23 538.108 434.012 538.108 433.742V432.205C538.108 431.936 537.89 431.717 537.62 431.717H534.408C534.139 431.717 533.92 431.936 533.92 432.205V433.742C533.92 434.012 534.139 434.23 534.408 434.23Z" fill="#3F3D56"/>
<path d="M526.031 434.23H529.243C529.513 434.23 529.732 434.012 529.732 433.742V432.205C529.732 431.936 529.513 431.717 529.243 431.717H526.031C525.762 431.717 525.543 431.936 525.543 432.205V433.742C525.543 434.012 525.762 434.23 526.031 434.23Z" fill="#3F3D56"/>
<path d="M517.654 434.23H520.866C521.136 434.23 521.354 434.012 521.354 433.742V432.205C521.354 431.936 521.136 431.717 520.866 431.717H517.654C517.384 431.717 517.166 431.936 517.166 432.205V433.742C517.166 434.012 517.384 434.23 517.654 434.23Z" fill="#3F3D56"/>
<path d="M509.277 434.23H512.489C512.759 434.23 512.978 434.012 512.978 433.742V432.205C512.978 431.936 512.759 431.717 512.489 431.717H509.277C509.008 431.717 508.789 431.936 508.789 432.205V433.742C508.789 434.012 509.008 434.23 509.277 434.23Z" fill="#3F3D56"/>
<path d="M635.031 438.419H638.243C638.513 438.419 638.731 438.2 638.731 437.931V436.394C638.731 436.124 638.513 435.906 638.243 435.906H635.031C634.761 435.906 634.543 436.124 634.543 436.394V437.931C634.543 438.2 634.761 438.419 635.031 438.419Z" fill="#3F3D56"/>
<path d="M626.654 438.419H629.866C630.136 438.419 630.354 438.2 630.354 437.931V436.394C630.354 436.124 630.136 435.906 629.866 435.906H626.654C626.384 435.906 626.166 436.124 626.166 436.394V437.931C626.166 438.2 626.384 438.419 626.654 438.419Z" fill="#3F3D56"/>
<path d="M618.277 438.419H621.489C621.759 438.419 621.977 438.2 621.977 437.931V436.394C621.977 436.124 621.759 435.906 621.489 435.906H618.277C618.007 435.906 617.789 436.124 617.789 436.394V437.931C617.789 438.2 618.007 438.419 618.277 438.419Z" fill="#3F3D56"/>
<path d="M609.9 438.419H613.112C613.382 438.419 613.6 438.2 613.6 437.931V436.394C613.6 436.124 613.382 435.906 613.112 435.906H609.9C609.63 435.906 609.412 436.124 609.412 436.394V437.931C609.412 438.2 609.63 438.419 609.9 438.419Z" fill="#3F3D56"/>
<path d="M601.523 438.419H604.735C605.005 438.419 605.223 438.2 605.223 437.931V436.394C605.223 436.124 605.005 435.906 604.735 435.906H601.523C601.253 435.906 601.035 436.124 601.035 436.394V437.931C601.035 438.2 601.253 438.419 601.523 438.419Z" fill="#3F3D56"/>
<path d="M593.146 438.419H596.358C596.628 438.419 596.846 438.2 596.846 437.931V436.394C596.846 436.124 596.628 435.906 596.358 435.906H593.146C592.876 435.906 592.658 436.124 592.658 436.394V437.931C592.658 438.2 592.876 438.419 593.146 438.419Z" fill="#3F3D56"/>
<path d="M584.769 438.419H587.981C588.251 438.419 588.469 438.2 588.469 437.931V436.394C588.469 436.124 588.251 435.906 587.981 435.906H584.769C584.499 435.906 584.281 436.124 584.281 436.394V437.931C584.281 438.2 584.499 438.419 584.769 438.419Z" fill="#3F3D56"/>
<path d="M576.392 438.419H579.604C579.874 438.419 580.092 438.2 580.092 437.931V436.394C580.092 436.124 579.874 435.906 579.604 435.906H576.392C576.122 435.906 575.904 436.124 575.904 436.394V437.931C575.904 438.2 576.122 438.419 576.392 438.419Z" fill="#3F3D56"/>
<path d="M568.015 438.419H571.227C571.497 438.419 571.715 438.2 571.715 437.931V436.394C571.715 436.124 571.497 435.906 571.227 435.906H568.015C567.745 435.906 567.527 436.124 567.527 436.394V437.931C567.527 438.2 567.745 438.419 568.015 438.419Z" fill="#3F3D56"/>
<path d="M559.638 438.419H562.85C563.12 438.419 563.338 438.2 563.338 437.931V436.394C563.338 436.124 563.12 435.906 562.85 435.906H559.638C559.369 435.906 559.15 436.124 559.15 436.394V437.931C559.15 438.2 559.369 438.419 559.638 438.419Z" fill="#3F3D56"/>
<path d="M551.261 438.419H554.473C554.743 438.419 554.961 438.2 554.961 437.931V436.394C554.961 436.124 554.743 435.906 554.473 435.906H551.261C550.991 435.906 550.773 436.124 550.773 436.394V437.931C550.773 438.2 550.991 438.419 551.261 438.419Z" fill="#3F3D56"/>
<path d="M542.884 438.419H546.096C546.366 438.419 546.584 438.2 546.584 437.931V436.394C546.584 436.124 546.366 435.906 546.096 435.906H542.884C542.615 435.906 542.396 436.124 542.396 436.394V437.931C542.396 438.2 542.615 438.419 542.884 438.419Z" fill="#3F3D56"/>
<path d="M534.507 438.419H537.719C537.989 438.419 538.207 438.2 538.207 437.931V436.394C538.207 436.124 537.989 435.906 537.719 435.906H534.507C534.238 435.906 534.019 436.124 534.019 436.394V437.931C534.019 438.2 534.238 438.419 534.507 438.419Z" fill="#3F3D56"/>
<path d="M526.13 438.419H529.342C529.612 438.419 529.831 438.2 529.831 437.931V436.394C529.831 436.124 529.612 435.906 529.342 435.906H526.13C525.861 435.906 525.642 436.124 525.642 436.394V437.931C525.642 438.2 525.861 438.419 526.13 438.419Z" fill="#3F3D56"/>
<path d="M517.753 438.419H520.965C521.235 438.419 521.453 438.2 521.453 437.931V436.394C521.453 436.124 521.235 435.906 520.965 435.906H517.753C517.483 435.906 517.265 436.124 517.265 436.394V437.931C517.265 438.2 517.483 438.419 517.753 438.419Z" fill="#3F3D56"/>
<path d="M509.376 438.419H512.588C512.858 438.419 513.077 438.2 513.077 437.931V436.394C513.077 436.124 512.858 435.906 512.588 435.906H509.376C509.107 435.906 508.888 436.124 508.888 436.394V437.931C508.888 438.2 509.107 438.419 509.376 438.419Z" fill="#3F3D56"/>
<path d="M565.502 443.445H598.034C598.303 443.445 598.522 443.226 598.522 442.957V441.42C598.522 441.151 598.303 440.932 598.034 440.932H565.502C565.232 440.932 565.014 441.151 565.014 441.42V442.957C565.014 443.226 565.232 443.445 565.502 443.445Z" fill="#3F3D56"/>
<path d="M531.036 358.737H528.192C527.33 358.737 526.631 359.436 526.631 360.298C526.631 361.16 527.33 361.859 528.192 361.859H531.036C531.898 361.859 532.597 361.16 532.597 360.298C532.597 359.436 531.898 358.737 531.036 358.737Z" fill="white"/>
<path d="M563.559 358.737H560.715C559.853 358.737 559.154 359.436 559.154 360.298C559.154 361.16 559.853 361.859 560.715 361.859H563.559C564.421 361.859 565.12 361.16 565.12 360.298C565.12 359.436 564.421 358.737 563.559 358.737Z" fill="white"/>
<path d="M572.774 358.737H569.93C569.068 358.737 568.369 359.436 568.369 360.298C568.369 361.16 569.068 361.859 569.93 361.859H572.774C573.636 361.859 574.335 361.16 574.335 360.298C574.335 359.436 573.636 358.737 572.774 358.737Z" fill="white"/>
<path d="M554.712 358.477H537.039C536.176 358.477 535.477 359.176 535.477 360.038C535.477 360.9 536.176 361.599 537.039 361.599H554.712C555.575 361.599 556.274 360.9 556.274 360.038C556.274 359.176 555.575 358.477 554.712 358.477Z" fill="white"/>
<path d="M598.076 358.477H580.403C579.54 358.477 578.841 359.176 578.841 360.038C578.841 360.9 579.54 361.599 580.403 361.599H598.076C598.939 361.599 599.638 360.9 599.638 360.038C599.638 359.176 598.939 358.477 598.076 358.477Z" fill="white"/>
<path d="M539.709 365.784H536.865C536.003 365.784 535.304 366.483 535.304 367.345C535.304 368.207 536.003 368.906 536.865 368.906H539.709C540.571 368.906 541.27 368.207 541.27 367.345C541.27 366.483 540.571 365.784 539.709 365.784Z" fill="white"/>
<path d="M572.232 365.784H569.388C568.526 365.784 567.827 366.483 567.827 367.345C567.827 368.207 568.526 368.906 569.388 368.906H572.232C573.094 368.906 573.793 368.207 573.793 367.345C573.793 366.483 573.094 365.784 572.232 365.784Z" fill="white"/>
<path d="M581.446 365.784H578.603C577.741 365.784 577.042 366.483 577.042 367.345C577.042 368.207 577.741 368.906 578.603 368.906H581.446C582.309 368.906 583.008 368.207 583.008 367.345C583.008 366.483 582.309 365.784 581.446 365.784Z" fill="white"/>
<path d="M563.385 365.523H545.711C544.849 365.523 544.15 366.222 544.15 367.085C544.15 367.947 544.849 368.646 545.711 368.646H563.385C564.247 368.646 564.946 367.947 564.946 367.085C564.946 366.222 564.247 365.523 563.385 365.523Z" fill="white"/>
<path d="M606.749 365.523H589.075C588.213 365.523 587.514 366.222 587.514 367.085C587.514 367.947 588.213 368.646 589.075 368.646H606.749C607.611 368.646 608.31 367.947 608.31 367.085C608.31 366.222 607.611 365.523 606.749 365.523Z" fill="white"/>
<path d="M548.381 372.83H545.538C544.676 372.83 543.977 373.529 543.977 374.391C543.977 375.254 544.676 375.953 545.538 375.953H548.381C549.244 375.953 549.943 375.254 549.943 374.391C549.943 373.529 549.244 372.83 548.381 372.83Z" fill="white"/>
<path d="M580.904 372.83H578.061C577.199 372.83 576.5 373.529 576.5 374.391C576.5 375.254 577.199 375.953 578.061 375.953H580.904C581.767 375.953 582.466 375.254 582.466 374.391C582.466 373.529 581.767 372.83 580.904 372.83Z" fill="white"/>
<path d="M590.119 372.83H587.276C586.413 372.83 585.715 373.529 585.715 374.391C585.715 375.254 586.413 375.953 587.276 375.953H590.119C590.981 375.953 591.68 375.254 591.68 374.391C591.68 373.529 590.981 372.83 590.119 372.83Z" fill="white"/>
<path d="M572.058 372.57H554.384C553.522 372.57 552.823 373.269 552.823 374.131C552.823 374.993 553.522 375.692 554.384 375.692H572.058C572.92 375.692 573.619 374.993 573.619 374.131C573.619 373.269 572.92 372.57 572.058 372.57Z" fill="white"/>
<path d="M615.422 372.57H597.748C596.886 372.57 596.187 373.269 596.187 374.131C596.187 374.993 596.886 375.692 597.748 375.692H615.422C616.284 375.692 616.983 374.993 616.983 374.131C616.983 373.269 616.284 372.57 615.422 372.57Z" fill="white"/>
<path d="M557.054 379.877H554.211C553.348 379.877 552.649 380.576 552.649 381.438C552.649 382.3 553.348 382.999 554.211 382.999H557.054C557.916 382.999 558.615 382.3 558.615 381.438C558.615 380.576 557.916 379.877 557.054 379.877Z" fill="white"/>
<path d="M589.577 379.877H586.734C585.871 379.877 585.172 380.576 585.172 381.438C585.172 382.3 585.871 382.999 586.734 382.999H589.577C590.439 382.999 591.138 382.3 591.138 381.438C591.138 380.576 590.439 379.877 589.577 379.877Z" fill="white"/>
<path d="M598.792 379.877H595.948C595.086 379.877 594.387 380.576 594.387 381.438C594.387 382.3 595.086 382.999 595.948 382.999H598.792C599.654 382.999 600.353 382.3 600.353 381.438C600.353 380.576 599.654 379.877 598.792 379.877Z" fill="white"/>
<path d="M580.731 379.617H563.057C562.195 379.617 561.496 380.316 561.496 381.178C561.496 382.04 562.195 382.739 563.057 382.739H580.731C581.593 382.739 582.292 382.04 582.292 381.178C582.292 380.316 581.593 379.617 580.731 379.617Z" fill="white"/>
<path d="M563.559 407.898H560.715C559.853 407.898 559.154 408.596 559.154 409.459C559.154 410.321 559.853 411.02 560.715 411.02H563.559C564.421 411.02 565.12 410.321 565.12 409.459C565.12 408.596 564.421 407.898 563.559 407.898Z" fill="white"/>
<path d="M572.774 407.898H569.93C569.068 407.898 568.369 408.596 568.369 409.459C568.369 410.321 569.068 411.02 569.93 411.02H572.774C573.636 411.02 574.335 410.321 574.335 409.459C574.335 408.596 573.636 407.898 572.774 407.898Z" fill="white"/>
<path d="M598.076 408.158H580.403C579.54 408.158 578.841 408.857 578.841 409.719C578.841 410.581 579.54 411.28 580.403 411.28H598.076C598.939 411.28 599.638 410.581 599.638 409.719C599.638 408.857 598.939 408.158 598.076 408.158Z" fill="white"/>
<path d="M531.036 407.898H528.192C527.33 407.898 526.631 408.596 526.631 409.459C526.631 410.321 527.33 411.02 528.192 411.02H531.036C531.898 411.02 532.597 410.321 532.597 409.459C532.597 408.596 531.898 407.898 531.036 407.898Z" fill="white"/>
<path d="M554.712 408.158H537.039C536.176 408.158 535.477 408.857 535.477 409.719C535.477 410.581 536.176 411.28 537.039 411.28H554.712C555.575 411.28 556.274 410.581 556.274 409.719C556.274 408.857 555.575 408.158 554.712 408.158Z" fill="white"/>
<path d="M539.709 400.851H536.865C536.003 400.851 535.304 401.55 535.304 402.412C535.304 403.274 536.003 403.973 536.865 403.973H539.709C540.571 403.973 541.27 403.274 541.27 402.412C541.27 401.55 540.571 400.851 539.709 400.851Z" fill="white"/>
<path d="M572.232 400.851H569.388C568.526 400.851 567.827 401.55 567.827 402.412C567.827 403.274 568.526 403.973 569.388 403.973H572.232C573.094 403.973 573.793 403.274 573.793 402.412C573.793 401.55 573.094 400.851 572.232 400.851Z" fill="white"/>
<path d="M581.446 400.851H578.603C577.741 400.851 577.042 401.55 577.042 402.412C577.042 403.274 577.741 403.973 578.603 403.973H581.446C582.309 403.973 583.008 403.274 583.008 402.412C583.008 401.55 582.309 400.851 581.446 400.851Z" fill="white"/>
<path d="M563.385 401.111H545.711C544.849 401.111 544.15 401.81 544.15 402.672C544.15 403.534 544.849 404.233 545.711 404.233H563.385C564.247 404.233 564.946 403.534 564.946 402.672C564.946 401.81 564.247 401.111 563.385 401.111Z" fill="white"/>
<path d="M548.381 393.804H545.538C544.676 393.804 543.977 394.503 543.977 395.365C543.977 396.227 544.676 396.926 545.538 396.926H548.381C549.244 396.926 549.943 396.227 549.943 395.365C549.943 394.503 549.244 393.804 548.381 393.804Z" fill="white"/>
<path d="M580.904 393.804H578.061C577.199 393.804 576.5 394.503 576.5 395.365C576.5 396.227 577.199 396.926 578.061 396.926H580.904C581.767 396.926 582.466 396.227 582.466 395.365C582.466 394.503 581.767 393.804 580.904 393.804Z" fill="white"/>
<path d="M590.119 393.804H587.276C586.413 393.804 585.715 394.503 585.715 395.365C585.715 396.227 586.413 396.926 587.276 396.926H590.119C590.981 396.926 591.68 396.227 591.68 395.365C591.68 394.503 590.981 393.804 590.119 393.804Z" fill="white"/>
<path d="M572.058 394.064H554.384C553.522 394.064 552.823 394.763 552.823 395.626C552.823 396.488 553.522 397.187 554.384 397.187H572.058C572.92 397.187 573.619 396.488 573.619 395.626C573.619 394.763 572.92 394.064 572.058 394.064Z" fill="white"/>
<path d="M557.054 386.758H554.211C553.348 386.758 552.649 387.456 552.649 388.319C552.649 389.181 553.348 389.88 554.211 389.88H557.054C557.916 389.88 558.615 389.181 558.615 388.319C558.615 387.456 557.916 386.758 557.054 386.758Z" fill="white"/>
<path d="M589.577 386.758H586.734C585.871 386.758 585.172 387.456 585.172 388.319C585.172 389.181 585.871 389.88 586.734 389.88H589.577C590.439 389.88 591.138 389.181 591.138 388.319C591.138 387.456 590.439 386.758 589.577 386.758Z" fill="white"/>
<path d="M598.792 386.758H595.948C595.086 386.758 594.387 387.456 594.387 388.319C594.387 389.181 595.086 389.88 595.948 389.88H598.792C599.654 389.88 600.353 389.181 600.353 388.319C600.353 387.456 599.654 386.758 598.792 386.758Z" fill="white"/>
<path d="M580.731 387.018H563.057C562.195 387.018 561.496 387.717 561.496 388.579C561.496 389.441 562.195 390.14 563.057 390.14H580.731C581.593 390.14 582.292 389.441 582.292 388.579C582.292 387.717 581.593 387.018 580.731 387.018Z" fill="white"/>
<path d="M515.917 490.482L502.568 469.38L544.47 435.977L561.765 416.816C564.012 414.327 566.873 412.471 570.062 411.433C573.251 410.396 576.657 410.214 579.938 410.905C583.22 411.596 586.262 413.136 588.762 415.372C591.262 417.607 593.131 420.46 594.183 423.644C595.742 428.363 595.407 433.502 593.248 437.979C591.089 442.455 587.276 445.917 582.613 447.635L555.264 457.71L515.917 490.482Z" fill="#FFB6B6"/>
<path d="M202.69 337.481V440.041H274.54V337.481C274.541 336.743 274.306 336.025 273.868 335.431C273.431 334.837 272.815 334.399 272.11 334.181C271.778 334.071 271.43 334.017 271.08 334.021H206.16C205.705 334.02 205.254 334.109 204.833 334.282C204.413 334.456 204.03 334.71 203.708 335.032C203.386 335.353 203.13 335.735 202.955 336.155C202.78 336.575 202.69 337.026 202.69 337.481V337.481ZM230.73 372.721C230.749 370.699 231.565 368.766 233.001 367.343C234.438 365.92 236.378 365.122 238.4 365.122C240.422 365.122 242.362 365.92 243.798 367.343C245.235 368.766 246.051 370.699 246.07 372.721V384.621C246.06 386.648 245.247 388.589 243.81 390.019C242.372 391.449 240.427 392.252 238.4 392.252C236.372 392.252 234.428 391.449 232.99 390.019C231.553 388.589 230.74 386.648 230.73 384.621V372.721Z" fill="#2F2E41"/>
<path d="M202.47 436.761V446.651C202.472 447.163 202.675 447.654 203.036 448.017C203.398 448.381 203.888 448.587 204.4 448.591H272.83C273.343 448.588 273.834 448.383 274.195 448.019C274.557 447.656 274.76 447.164 274.76 446.651V436.761H202.47Z" fill="#3F3D56"/>
<path d="M89.6599 182.961V370.221C89.6618 372.607 90.6106 374.895 92.298 376.583C93.9855 378.27 96.2735 379.219 98.6599 379.221H376.16C378.546 379.219 380.834 378.27 382.522 376.583C384.209 374.895 385.158 372.607 385.16 370.221V182.961C385.154 180.577 384.204 178.292 382.517 176.607C380.83 174.922 378.544 173.974 376.16 173.971H98.6599C96.2756 173.974 93.9897 174.922 92.3028 176.607C90.6159 178.292 89.6656 180.577 89.6599 182.961Z" fill="#3F3D56"/>
<path d="M96.1699 185.291V367.911C96.1721 369.186 96.6796 370.408 97.5811 371.31C98.4827 372.211 99.7049 372.719 100.98 372.721H373.85C375.125 372.719 376.347 372.211 377.249 371.31C378.15 370.408 378.658 369.186 378.66 367.911V185.291C378.66 184.014 378.153 182.79 377.252 181.886C376.35 180.983 375.126 180.474 373.85 180.471H100.98C99.7034 180.474 98.48 180.983 97.5783 181.886C96.6765 182.79 96.1701 184.014 96.1699 185.291Z" fill="white"/>
<path d="M146.81 447.921C147.088 448.269 147.441 448.55 147.843 448.742C148.244 448.934 148.685 449.033 149.13 449.031H311.47C311.914 449.03 312.352 448.931 312.753 448.74C313.154 448.548 313.507 448.27 313.786 447.925C314.066 447.581 314.265 447.178 314.37 446.746C314.474 446.315 314.481 445.865 314.39 445.431L311.87 433.461C311.765 432.973 311.541 432.518 311.216 432.139C310.891 431.76 310.476 431.469 310.01 431.291C309.672 431.158 309.313 431.09 308.95 431.091H151.64C151.277 431.09 150.918 431.158 150.58 431.291C150.114 431.469 149.699 431.76 149.374 432.139C149.049 432.518 148.824 432.973 148.72 433.461L146.2 445.431C146.11 445.865 146.119 446.314 146.224 446.745C146.33 447.175 146.53 447.577 146.81 447.921Z" fill="#2F2E41"/>
<path d="M364.994 205.628H109.671C109.406 205.622 109.153 205.512 108.967 205.322C108.782 205.133 108.678 204.878 108.678 204.612C108.678 204.347 108.782 204.092 108.967 203.902C109.153 203.712 109.406 203.603 109.671 203.597H364.994C365.26 203.603 365.512 203.712 365.698 203.902C365.884 204.092 365.987 204.347 365.987 204.612C365.987 204.878 365.884 205.133 365.698 205.322C365.512 205.512 365.26 205.622 364.994 205.628V205.628Z" fill="#3F3D56"/>
<path d="M127.051 198.413C130.338 198.413 133.002 195.689 133.002 192.33C133.002 188.97 130.338 186.247 127.051 186.247C123.765 186.247 121.101 188.97 121.101 192.33C121.101 195.689 123.765 198.413 127.051 198.413Z" fill="#3F3D56"/>
<path d="M147.607 198.413C150.894 198.413 153.558 195.689 153.558 192.33C153.558 188.97 150.894 186.247 147.607 186.247C144.321 186.247 141.657 188.97 141.657 192.33C141.657 195.689 144.321 198.413 147.607 198.413Z" fill="#3F3D56"/>
<path d="M168.163 198.413C171.45 198.413 174.114 195.689 174.114 192.33C174.114 188.97 171.45 186.247 168.163 186.247C164.877 186.247 162.213 188.97 162.213 192.33C162.213 195.689 164.877 198.413 168.163 198.413Z" fill="#3F3D56"/>
<path d="M352.616 187.751H338.016C337.728 187.758 337.453 187.877 337.251 188.083C337.05 188.29 336.937 188.567 336.937 188.856C336.937 189.145 337.05 189.422 337.251 189.628C337.453 189.835 337.728 189.954 338.016 189.961H352.616C352.907 189.957 353.184 189.839 353.388 189.632C353.592 189.425 353.706 189.146 353.706 188.856C353.706 188.565 353.592 188.287 353.388 188.08C353.184 187.873 352.907 187.755 352.616 187.751Z" fill="#3F3D56"/>
<path d="M352.616 191.901H338.016C337.727 191.907 337.453 192.026 337.251 192.233C337.049 192.44 336.935 192.717 336.935 193.006C336.935 193.295 337.049 193.572 337.251 193.779C337.453 193.985 337.727 194.104 338.016 194.111H352.616C352.907 194.107 353.185 193.989 353.389 193.783C353.593 193.576 353.708 193.297 353.708 193.006C353.708 192.715 353.593 192.436 353.389 192.229C353.185 192.022 352.907 191.904 352.616 191.901V191.901Z" fill="#3F3D56"/>
<path d="M352.616 196.051H338.016C337.728 196.058 337.453 196.177 337.251 196.383C337.05 196.59 336.937 196.867 336.937 197.156C336.937 197.444 337.05 197.722 337.251 197.928C337.453 198.135 337.728 198.254 338.016 198.261H352.616C352.907 198.257 353.184 198.138 353.388 197.932C353.592 197.725 353.706 197.446 353.706 197.156C353.706 196.865 353.592 196.587 353.388 196.38C353.184 196.173 352.907 196.055 352.616 196.051V196.051Z" fill="#3F3D56"/>
<path d="M267.84 260.827H223.649C221.846 260.827 220.385 262.289 220.385 264.091V268.409C220.385 270.211 221.846 271.673 223.649 271.673H267.84C269.642 271.673 271.104 270.211 271.104 268.409V264.091C271.104 262.289 269.642 260.827 267.84 260.827Z" fill="#0075FF"/>
<path d="M293.598 282.518H197.89C196.087 282.518 194.626 283.98 194.626 285.783V290.1C194.626 291.903 196.087 293.364 197.89 293.364H293.598C295.401 293.364 296.862 291.903 296.862 290.1V285.783C296.862 283.98 295.401 282.518 293.598 282.518Z" fill="#E6E6E6"/>
<path d="M293.598 304.21H197.89C196.087 304.21 194.626 305.671 194.626 307.474V311.791C194.626 313.594 196.087 315.056 197.89 315.056H293.598C295.401 315.056 296.862 313.594 296.862 311.791V307.474C296.862 305.671 295.401 304.21 293.598 304.21Z" fill="#E6E6E6"/>
<path d="M301.711 376.846L301.928 377.53L301.939 377.553L308.464 397.391L315.971 420.252L330.093 463.213L330.23 469.887V469.91L331.28 523.594L328.371 530.872L331.645 542.805C331.645 542.805 330.139 524.768 322.062 535.126C317.488 541.012 312.138 547.035 307.746 552.682C314.146 555.272 320.648 557.614 327.253 559.709C328.679 560.166 330.116 560.599 331.554 561.033C331.862 561.124 332.17 561.215 332.478 561.306C354.372 567.781 377.008 571.42 399.829 572.132C401.015 572.167 402.179 572.189 403.308 572.212C403.707 572.224 404.095 572.235 404.483 572.235C405.761 572.246 407.027 572.258 408.304 572.258C410.883 572.258 413.449 572.22 416.005 572.144C434.918 571.611 453.721 569.068 472.096 564.558C471.971 556.971 471.628 548.108 471.138 538.639C470.91 533.996 465.788 528.966 465.48 524.106C465.263 520.456 469.86 517.022 469.621 513.314C468.069 490.488 466.13 499.25 464.693 483.085C464.544 481.5 464.407 479.983 464.282 478.534C463.358 468.153 462.719 461.662 462.719 461.662L468.856 422.979L478.496 362.244L477.754 361.023L476.922 360.613L426.078 335.447L423.317 328.375C422.513 326.337 421.117 324.587 419.31 323.349C417.502 322.111 415.366 321.441 413.176 321.427L379.683 321.291C377.944 321.283 376.229 321.689 374.68 322.477C373.13 323.265 371.791 324.411 370.773 325.819L361.704 338.379L301.711 376.846Z" fill="#3F3D56"/>
<path d="M337.816 453.654L330.23 469.887L325.051 480.975L316.142 527.621L311.682 532.355L307.86 515.596L267.862 524.477C266.55 517.187 267.511 524.723 266.701 516.727C266.929 516.499 267.169 516.27 267.408 516.042C268.047 515.449 268.583 514.89 268.572 514.354C268.116 486.77 269.485 439.828 280.915 411.388C282.705 406.745 285.066 402.342 287.942 398.281C288.17 397.973 288.387 397.665 288.604 397.357C293.874 389.976 297.205 382.709 301.928 377.542V377.53C301.957 377.507 301.984 377.48 302.008 377.45C302.025 377.442 302.04 377.43 302.053 377.416L334.497 360.213L335.889 399.319L336.881 427.427L337.816 453.654Z" fill="#3F3D56"/>
<path d="M454.801 458.264L464.277 478.539L467.585 485.6L476.491 532.242L480.937 536.964L484.768 520.209L486.567 519.84L519.026 513.118L528.487 543.164C530.619 539.611 531.459 535.431 530.865 531.33C530.271 527.23 528.278 523.46 525.225 520.658C524.579 520.074 524.041 519.505 524.056 518.966C524.595 486.523 522.61 427.283 504.689 402.9C498.997 395.163 495.582 387.456 490.613 382.072C490.598 382.056 490.598 382.041 490.583 382.041L478.491 362.243L477.753 361.027L476.922 360.612L454.801 458.264Z" fill="#3F3D56"/>
<path d="M397.396 311.759C422.005 311.759 441.955 291.809 441.955 267.201C441.955 242.592 422.005 222.642 397.396 222.642C372.788 222.642 352.838 242.592 352.838 267.201C352.838 291.809 372.788 311.759 397.396 311.759Z" fill="#FFB6B6"/>
<path d="M457.622 236.077C457.277 235.708 456.861 235.412 456.398 235.208C455.936 235.003 455.438 234.894 454.932 234.887L455.602 233.027C455.821 232.441 455.88 231.807 455.773 231.191C455.667 230.575 455.398 229.998 454.995 229.52C454.592 229.042 454.069 228.679 453.48 228.47C452.891 228.26 452.257 228.211 451.642 228.327L449.202 228.797L449.432 227.167C449.52 226.56 449.449 225.94 449.225 225.369C449.001 224.798 448.633 224.295 448.155 223.909C447.678 223.524 447.109 223.269 446.503 223.171C445.898 223.072 445.277 223.133 444.702 223.347C444.179 223.553 443.617 223.639 443.056 223.599C442.495 223.559 441.951 223.394 441.462 223.117C440.972 222.848 440.546 222.475 440.214 222.024C439.882 221.573 439.653 221.055 439.542 220.507L438.692 216.407L438.602 216.187C434.462 209.287 426.502 204.267 416.762 202.427C408.092 200.777 399.202 201.617 390.632 202.407C387.232 202.727 383.392 203.087 380.192 205.047C377.472 206.727 375.172 210.087 375.642 213.477C367.192 210.887 358.132 216.057 353.642 222.577C348.322 230.337 347.452 240.057 347.312 247.657C346.932 265.637 350.642 280.347 358.312 291.387C358.872 292.187 359.012 293.857 360.122 294.417L359.892 294.047C361.132 294.667 362.392 295.667 361.922 296.737C360.572 299.817 369.542 306.627 375.862 308.877C387.392 312.987 402.722 312.637 413.502 311.157L413.882 308.607C417.772 308.077 420.512 307.067 421.282 305.487C422.642 304.327 423.802 303.287 424.812 302.327L424.822 302.317C424.842 302.297 424.882 302.267 424.902 302.247C429.772 297.577 430.902 294.917 431.412 290.867C431.902 286.897 431.032 282.867 430.142 279.237C448.882 282.137 422.762 259.277 440.222 254.857C440.422 254.795 440.626 254.745 440.832 254.707C441.342 254.587 441.852 254.467 442.342 254.327C444.704 253.686 446.966 252.72 449.062 251.457C453.942 248.487 455.552 244.547 458.072 240.107C458.436 239.475 458.588 238.743 458.507 238.018C458.426 237.293 458.116 236.613 457.622 236.077V236.077Z" fill="#2F2E41"/>
<path d="M554.992 461.437C554.982 463.187 554.962 465.637 554.882 468.667C554.872 469.087 554.862 469.517 554.852 469.957C554.722 475.527 554.592 480.197 554.382 485.387C554.372 485.747 554.362 486.097 554.342 486.457C554.062 493.697 553.622 502.127 552.862 515.477C551.452 540.137 548.992 518.867 546.522 527.517C546.402 527.947 546.272 528.457 546.152 529.057C545.778 531.234 545.147 533.359 544.272 535.387C542.962 536.167 541.612 536.917 540.282 537.667C536.492 539.777 532.642 541.807 528.762 543.737C526.582 544.817 524.392 545.877 522.192 546.897C521.842 547.057 521.502 547.217 521.162 547.367C509.896 552.578 498.286 557.008 486.412 560.627C484.092 561.327 481.782 562.007 479.442 562.637C477.002 563.317 474.562 563.957 472.092 564.557C453.718 569.068 434.915 571.612 416.002 572.147C413.452 572.227 410.882 572.257 408.302 572.257C407.022 572.257 405.762 572.247 404.482 572.237C404.092 572.237 403.702 572.227 403.312 572.217C402.182 572.187 401.012 572.167 399.832 572.137C377.011 571.425 354.376 567.785 332.482 561.307L331.552 561.037C330.112 560.597 328.682 560.167 327.252 559.707C320.652 557.617 314.149 555.277 307.742 552.687C302.852 550.717 298.019 548.603 293.242 546.347C293.199 546.335 293.158 546.315 293.122 546.287C292.122 545.827 291.112 545.347 290.112 544.857C289.982 544.787 289.842 544.717 289.702 544.647C285.972 542.827 282.282 540.92 278.632 538.927C275.562 531.877 271.242 530.527 268.562 524.327C267.782 522.485 267.219 520.559 266.882 518.587C266.882 518.567 266.872 518.547 266.872 518.517C267.152 522.237 265.682 511.917 266.862 518.477C266.852 518.357 266.842 518.227 266.832 518.077C266.802 517.717 266.762 517.277 266.702 516.727C263.272 483.237 263.492 444.937 262.002 413.377C261.902 411.337 261.799 409.383 261.692 407.517C261.662 406.897 261.622 406.287 261.582 405.687C261.652 405.507 261.732 405.317 261.822 405.137C261.841 405.085 261.865 405.035 261.892 404.987C261.922 404.925 261.955 404.865 261.992 404.807C262.012 404.777 262.042 404.737 262.062 404.707C262.077 404.672 262.094 404.639 262.112 404.607C262.202 404.467 262.302 404.317 262.412 404.177C262.462 404.117 262.502 404.067 262.552 404.017C262.587 403.966 262.627 403.919 262.672 403.877C262.703 403.829 262.74 403.785 262.782 403.747C262.822 403.707 262.862 403.657 262.912 403.607C262.934 403.575 262.961 403.548 262.992 403.527C263.071 403.436 263.158 403.352 263.252 403.277C263.609 402.949 263.99 402.648 264.392 402.377C264.532 402.287 264.682 402.197 264.822 402.097C265.83 401.494 266.891 400.985 267.992 400.577C268.372 400.437 268.752 400.307 269.162 400.167C269.312 400.127 269.452 400.077 269.602 400.027C269.822 399.957 270.042 399.887 270.272 399.837C271.412 399.497 272.642 399.207 273.972 398.937C274.132 398.907 274.302 398.877 274.472 398.837C274.712 398.787 274.962 398.747 275.212 398.707C275.552 398.647 275.902 398.587 276.252 398.527C279.222 398.057 282.592 397.707 286.312 397.477C286.662 397.457 287.012 397.437 287.362 397.417C287.772 397.397 288.182 397.377 288.602 397.357C288.952 397.337 289.312 397.327 289.672 397.317C290.022 397.297 290.382 397.287 290.752 397.277C291.762 397.247 292.802 397.217 293.862 397.197C296.882 397.137 300.062 397.157 303.402 397.227C304.952 397.267 306.532 397.307 308.152 397.377C308.262 397.377 308.362 397.387 308.462 397.387C309.872 397.437 311.292 397.497 312.752 397.577C313.772 397.627 314.802 397.677 315.832 397.737C316.802 397.797 317.782 397.857 318.772 397.927C319.542 397.967 320.312 398.027 321.092 398.077C321.752 398.127 322.412 398.177 323.072 398.217L323.972 398.277C324.462 398.317 324.952 398.347 325.452 398.397C326.552 398.487 327.652 398.577 328.772 398.667C329.882 398.767 331.012 398.867 332.142 398.967C333.272 399.067 334.412 399.177 335.552 399.287C335.672 399.297 335.782 399.307 335.892 399.317C336.932 399.427 337.972 399.527 339.022 399.637C339.262 399.657 339.512 399.677 339.752 399.707C340.753 399.807 341.774 399.925 342.784 400.032C343.094 400.066 343.403 400.098 343.714 400.132C344.505 400.218 345.285 400.293 346.082 400.387C347.132 400.507 348.202 400.617 349.242 400.757C350.052 400.847 350.862 400.937 351.672 401.037C352.942 401.187 354.232 401.347 355.522 401.517C356.012 401.577 356.502 401.637 356.992 401.707C360.672 402.167 364.392 402.677 368.172 403.207C373.902 404.017 379.722 404.897 385.582 405.847C391.452 406.797 397.356 407.8 403.292 408.857C404.792 409.127 406.292 409.397 407.802 409.677C408.482 409.807 409.162 409.937 409.842 410.067C411.002 410.277 412.162 410.497 413.322 410.717C414.482 410.937 415.642 411.157 416.802 411.387C418.182 411.657 419.572 411.927 420.952 412.197C430.042 413.997 439.082 415.917 447.902 417.927C449.352 418.257 450.802 418.597 452.242 418.927C455.122 419.597 457.976 420.277 460.802 420.967C461.582 421.147 462.352 421.337 463.122 421.527C465.042 422.007 466.962 422.487 468.852 422.977L469.182 423.067C470.572 423.407 471.932 423.757 473.292 424.117C476.502 424.957 479.659 425.807 482.762 426.667C484.822 427.237 486.859 427.813 488.872 428.397C491.882 429.267 494.832 430.147 497.702 431.037C498.412 431.257 499.122 431.477 499.822 431.687C501.922 432.337 503.992 432.997 506.002 433.657C507.602 434.177 509.162 434.707 510.702 435.237C512.242 435.767 513.752 436.297 515.232 436.827C516.182 437.167 517.122 437.527 518.062 437.867C519.412 438.367 520.742 438.867 522.042 439.367C522.442 439.517 522.832 439.677 523.222 439.827C523.472 439.937 523.712 440.027 523.952 440.127C524.422 440.317 524.902 440.497 525.362 440.687C525.832 440.867 526.292 441.057 526.752 441.257C527.202 441.437 527.662 441.627 528.102 441.817C528.552 441.997 528.992 442.187 529.432 442.387C529.802 442.537 530.162 442.697 530.512 442.857C531.222 443.167 531.932 443.477 532.622 443.797C532.962 443.957 533.302 444.107 533.642 444.267L534.422 444.627C534.532 444.687 534.642 444.737 534.752 444.787C535.002 444.907 535.262 445.037 535.512 445.157C536.092 445.427 536.662 445.717 537.222 445.987C537.972 446.367 538.702 446.747 539.402 447.117C540.112 447.497 540.802 447.877 541.462 448.247C541.572 448.307 541.672 448.367 541.782 448.427C541.932 448.507 542.082 448.597 542.232 448.677C542.742 448.967 543.232 449.267 543.722 449.557C544.682 450.147 545.592 450.727 546.442 451.307C546.632 451.437 546.812 451.567 547.002 451.687C547.632 452.137 548.232 452.577 548.792 453.027C548.792 453.037 548.792 453.037 548.802 453.037C548.992 453.177 549.172 453.327 549.352 453.467C549.502 453.607 549.662 453.727 549.812 453.867C550.332 454.317 550.812 454.747 551.252 455.187C551.4 455.322 551.54 455.466 551.672 455.617C551.73 455.665 551.784 455.718 551.832 455.777C552.032 455.977 552.212 456.177 552.382 456.377C552.409 456.404 552.432 456.434 552.452 456.467C552.692 456.747 552.912 457.027 553.122 457.307C553.222 457.447 553.332 457.587 553.422 457.727C553.542 457.897 553.662 458.077 553.762 458.247C553.852 458.387 553.932 458.537 554.012 458.677C554.224 459.037 554.405 459.415 554.552 459.807C554.665 460.072 554.755 460.346 554.822 460.627C554.898 460.892 554.955 461.163 554.992 461.437Z" fill="#2F2E41"/>
<path opacity="0.2" d="M554.992 461.437C554.982 463.187 554.962 465.637 554.882 468.667C554.872 469.087 554.852 469.517 554.842 469.957C554.742 474.207 554.592 479.457 554.382 485.387C554.372 485.747 554.362 486.097 554.342 486.457C554.062 493.697 553.622 502.127 552.862 515.477C551.452 540.137 548.992 518.867 546.522 527.517C539.662 523.297 532.142 518.877 524.102 514.337C522.652 513.517 521.189 512.693 519.712 511.867C503.632 502.897 485.672 493.497 466.922 484.187C466.182 483.817 465.432 483.447 464.692 483.087C421.742 461.857 374.862 441.207 336.882 427.427C329.552 424.767 322.552 422.367 315.972 420.257C302.112 415.827 290.132 412.727 280.912 411.387C271.312 409.987 264.682 410.487 262.002 413.377C261.902 411.337 261.799 409.383 261.692 407.517C261.652 406.897 261.612 406.287 261.572 405.687C261.634 405.522 261.714 405.365 261.792 405.207C261.803 405.183 261.811 405.16 261.822 405.137C261.841 405.085 261.865 405.035 261.892 404.987C261.922 404.925 261.955 404.865 261.992 404.807C262.025 404.736 262.065 404.669 262.112 404.607C262.202 404.467 262.302 404.317 262.412 404.177C262.493 404.072 262.58 403.972 262.672 403.877C262.703 403.829 262.74 403.785 262.782 403.747C262.822 403.707 262.862 403.657 262.912 403.607C262.934 403.575 262.961 403.548 262.992 403.527C263.071 403.436 263.158 403.352 263.252 403.277C263.609 402.948 263.99 402.648 264.392 402.377C264.532 402.287 264.682 402.197 264.822 402.097C265.83 401.494 266.891 400.985 267.992 400.577C268.372 400.437 268.752 400.307 269.162 400.167C269.312 400.127 269.452 400.077 269.602 400.027C269.822 399.957 270.042 399.887 270.272 399.837C271.412 399.497 272.642 399.207 273.972 398.937C274.372 398.857 274.792 398.777 275.212 398.707C275.552 398.647 275.902 398.587 276.252 398.527C279.222 398.057 282.592 397.707 286.312 397.477C286.662 397.457 287.012 397.437 287.362 397.417C287.772 397.397 288.182 397.377 288.602 397.357C288.952 397.337 289.312 397.327 289.672 397.317C290.022 397.297 290.382 397.287 290.752 397.277C291.762 397.247 292.802 397.217 293.862 397.197C296.882 397.147 300.062 397.167 303.402 397.237C304.952 397.267 306.532 397.317 308.152 397.387C308.252 397.387 308.362 397.397 308.462 397.397C309.872 397.437 311.302 397.507 312.752 397.577C313.772 397.627 314.802 397.677 315.832 397.737C316.802 397.797 317.782 397.857 318.772 397.927C319.542 397.967 320.312 398.027 321.092 398.077C321.752 398.127 322.412 398.177 323.072 398.217C323.862 398.277 324.652 398.337 325.452 398.397C326.552 398.487 327.652 398.577 328.772 398.667C329.882 398.767 331.012 398.867 332.142 398.967C333.272 399.067 334.412 399.177 335.552 399.287C335.672 399.297 335.782 399.307 335.892 399.317C336.932 399.427 337.972 399.527 339.022 399.637C344.842 400.227 350.832 400.917 356.992 401.707C360.672 402.177 364.399 402.68 368.172 403.217C373.902 404.027 379.722 404.907 385.582 405.847C391.452 406.797 397.356 407.8 403.292 408.857C404.792 409.127 406.292 409.397 407.802 409.677C409.642 410.017 411.482 410.363 413.322 410.717C414.482 410.937 415.642 411.157 416.802 411.387C418.182 411.657 419.572 411.927 420.952 412.197C430.042 413.997 439.082 415.917 447.902 417.927C449.352 418.257 450.802 418.597 452.242 418.927C455.122 419.597 457.976 420.277 460.802 420.967C461.582 421.157 462.352 421.347 463.122 421.537C465.052 422.017 466.962 422.497 468.852 422.977V422.987C468.962 423.007 469.072 423.037 469.182 423.067C470.562 423.417 471.932 423.767 473.292 424.127C476.502 424.967 479.659 425.813 482.762 426.667C484.822 427.247 486.862 427.817 488.872 428.397C491.882 429.277 494.832 430.157 497.702 431.037C498.412 431.257 499.122 431.477 499.822 431.687C501.922 432.347 503.982 433.003 506.002 433.657C507.602 434.177 509.162 434.707 510.702 435.237C512.242 435.767 513.752 436.297 515.232 436.827C516.192 437.167 517.132 437.517 518.062 437.857C519.422 438.357 520.742 438.857 522.042 439.367C522.442 439.517 522.832 439.677 523.222 439.827C523.952 440.107 524.662 440.397 525.362 440.687C525.832 440.867 526.292 441.057 526.752 441.257C527.202 441.437 527.662 441.627 528.102 441.817C528.552 441.997 528.992 442.187 529.432 442.387C529.802 442.537 530.162 442.697 530.512 442.857C531.222 443.167 531.932 443.477 532.622 443.797C532.962 443.957 533.302 444.107 533.642 444.267L534.422 444.627C534.532 444.687 534.642 444.737 534.752 444.787C535.602 445.187 536.422 445.587 537.222 445.987C537.972 446.367 538.702 446.747 539.402 447.117C540.232 447.557 541.022 447.987 541.782 448.427C541.932 448.507 542.082 448.597 542.232 448.677C542.742 448.967 543.232 449.267 543.722 449.557C544.682 450.147 545.592 450.727 546.442 451.307C547.282 451.887 548.062 452.457 548.792 453.027C548.792 453.037 548.792 453.037 548.802 453.037C549.152 453.317 549.492 453.597 549.812 453.867C550.332 454.317 550.812 454.747 551.252 455.187C551.4 455.322 551.54 455.466 551.672 455.617C551.73 455.665 551.784 455.718 551.832 455.777C552.042 456.007 552.252 456.237 552.452 456.467C552.692 456.747 552.912 457.027 553.122 457.307C553.222 457.447 553.332 457.587 553.422 457.727C553.542 457.897 553.662 458.077 553.762 458.247C553.852 458.387 553.932 458.537 554.012 458.677C554.225 459.037 554.405 459.415 554.552 459.807C554.662 460.073 554.752 460.347 554.822 460.627C554.898 460.892 554.955 461.163 554.992 461.437V461.437Z" fill="black"/>
<g filter="url(#filter0_i_8_266)">
<ellipse cx="572" cy="168.5" rx="129" ry="135.5" fill="url(#paint0_linear_8_266)"/>
</g>
<defs>
<filter id="filter0_i_8_266" x="443" y="33" width="258" height="275" filterUnits="userSpaceOnUse" color-interpolation-filters="sRGB">
<feFlood flood-opacity="0" result="BackgroundImageFix"/>
<feBlend mode="normal" in="SourceGraphic" in2="BackgroundImageFix" result="shape"/>
<feColorMatrix in="SourceAlpha" type="matrix" values="0 0 0 0 0 0 0 0 0 0 0 0 0 0 0 0 0 0 127 0" result="hardAlpha"/>
<feOffset dy="4"/>
<feGaussianBlur stdDeviation="34"/>
<feComposite in2="hardAlpha" operator="arithmetic" k2="-1" k3="1"/>
<feColorMatrix type="matrix" values="0 0 0 0 0 0 0 0 0 0.46 0 0 0 0 1 0 0 0 1 0"/>
<feBlend mode="normal" in2="shape" result="effect1_innerShadow_8_266"/>
</filter>
<linearGradient id="paint0_linear_8_266" x1="532.5" y1="50" x2="572" y2="304" gradientUnits="userSpaceOnUse">
<stop stop-color="#1581FF"/>
<stop offset="1" stop-color="#4994EC"/>
</linearGradient>
</defs>
</svg>
