<svg width="32" height="32" viewBox="0 0 32 32" fill="none" xmlns="http://www.w3.org/2000/svg">
<path d="M18 10.1667C14.78 10.1667 12.1666 12.78 12.1666 16C12.1666 19.22 14.78 21.8333 18 21.8333C21.22 21.8333 23.8333 19.22 23.8333 16C23.8333 12.78 21.22 10.1667 18 10.1667ZM6.33329 17.1667H8.66663C9.30829 17.1667 9.83329 16.6417 9.83329 16C9.83329 15.3583 9.30829 14.8333 8.66663 14.8333H6.33329C5.69163 14.8333 5.16663 15.3583 5.16663 16C5.16663 16.6417 5.69163 17.1667 6.33329 17.1667ZM27.3333 17.1667H29.6666C30.3083 17.1667 30.8333 16.6417 30.8333 16C30.8333 15.3583 30.3083 14.8333 29.6666 14.8333H27.3333C26.6916 14.8333 26.1666 15.3583 26.1666 16C26.1666 16.6417 26.6916 17.1667 27.3333 17.1667ZM16.8333 4.33332V6.66666C16.8333 7.30832 17.3583 7.83332 18 7.83332C18.6416 7.83332 19.1666 7.30832 19.1666 6.66666V4.33332C19.1666 3.69166 18.6416 3.16666 18 3.16666C17.3583 3.16666 16.8333 3.69166 16.8333 4.33332ZM16.8333 25.3333V27.6667C16.8333 28.3083 17.3583 28.8333 18 28.8333C18.6416 28.8333 19.1666 28.3083 19.1666 27.6667V25.3333C19.1666 24.6917 18.6416 24.1667 18 24.1667C17.3583 24.1667 16.8333 24.6917 16.8333 25.3333ZM10.9883 7.34332C10.8804 7.23517 10.7522 7.14936 10.611 7.09082C10.4699 7.03227 10.3186 7.00214 10.1658 7.00214C10.013 7.00214 9.8617 7.03227 9.72056 7.09082C9.57943 7.14936 9.45122 7.23517 9.34329 7.34332C9.23514 7.45126 9.14933 7.57946 9.09079 7.72059C9.03224 7.86173 9.00211 8.01303 9.00211 8.16582C9.00211 8.31862 9.03224 8.46992 9.09079 8.61105C9.14933 8.75219 9.23514 8.88039 9.34329 8.98832L10.58 10.225C11.035 10.68 11.7816 10.68 12.225 10.225C12.6683 9.76999 12.68 9.02332 12.225 8.57999L10.9883 7.34332ZM25.42 21.775C25.312 21.6668 25.1838 21.581 25.0427 21.5225C24.9016 21.4639 24.7503 21.4338 24.5975 21.4338C24.4447 21.4338 24.2934 21.4639 24.1522 21.5225C24.0111 21.581 23.8829 21.6668 23.775 21.775C23.6668 21.8829 23.581 22.0111 23.5225 22.1523C23.4639 22.2934 23.4338 22.4447 23.4338 22.5975C23.4338 22.7503 23.4639 22.9016 23.5225 23.0427C23.581 23.1839 23.6668 23.3121 23.775 23.42L25.0116 24.6567C25.4666 25.1117 26.2133 25.1117 26.6566 24.6567C26.7648 24.5487 26.8506 24.4205 26.9091 24.2794C26.9677 24.1382 26.9978 23.987 26.9978 23.8342C26.9978 23.6814 26.9677 23.5301 26.9091 23.3889C26.8506 23.2478 26.7648 23.1196 26.6566 23.0117L25.42 21.775ZM26.6566 8.98832C26.7648 8.88039 26.8506 8.75219 26.9091 8.61105C26.9677 8.46992 26.9978 8.31862 26.9978 8.16582C26.9978 8.01303 26.9677 7.86173 26.9091 7.72059C26.8506 7.57946 26.7648 7.45126 26.6566 7.34332C26.5487 7.23517 26.4205 7.14936 26.2794 7.09082C26.1382 7.03227 25.9869 7.00214 25.8341 7.00214C25.6813 7.00214 25.53 7.03227 25.3889 7.09082C25.2478 7.14936 25.1196 7.23517 25.0116 7.34332L23.775 8.57999C23.32 9.03499 23.32 9.78166 23.775 10.225C24.23 10.6683 24.9766 10.68 25.42 10.225L26.6566 8.98832ZM12.225 23.42C12.3331 23.3121 12.4189 23.1839 12.4775 23.0427C12.536 22.9016 12.5661 22.7503 12.5661 22.5975C12.5661 22.4447 12.536 22.2934 12.4775 22.1523C12.4189 22.0111 12.3331 21.8829 12.225 21.775C12.117 21.6668 11.9888 21.581 11.8477 21.5225C11.7066 21.4639 11.5553 21.4338 11.4025 21.4338C11.2497 21.4338 11.0984 21.4639 10.9572 21.5225C10.8161 21.581 10.6879 21.6668 10.58 21.775L9.34329 23.0117C8.88829 23.4667 8.88829 24.2133 9.34329 24.6567C9.79829 25.1 10.545 25.1117 10.9883 24.6567L12.225 23.42Z" fill="white"/>
</svg>
