<svg width="57" height="57" viewBox="0 0 57 57" fill="none" xmlns="http://www.w3.org/2000/svg">
<path d="M28.5 0.705395C12.7555 0.705395 0 13.4716 0 29.2054C0 41.8042 8.16525 52.4828 19.4815 56.2501C20.9119 56.5191 21.4284 55.6374 21.4284 54.875C21.4284 54.1981 21.4124 52.408 21.4017 50.0318C13.4698 51.7489 11.799 46.2003 11.799 46.2003C10.5005 42.9157 8.62659 42.034 8.62659 42.034C6.04734 40.2723 8.83144 40.3097 8.83144 40.3097C11.6886 40.5039 13.1919 43.2399 13.1919 43.2399C15.7338 47.6004 19.8609 46.3392 21.4943 45.6054C21.7437 43.7689 22.4865 42.506 23.2952 41.8024C16.9682 41.0881 10.3152 38.6389 10.3152 27.718C10.3152 24.5991 11.4196 22.059 13.2454 20.064C12.9301 19.3497 11.9647 16.4463 13.4965 12.5204C13.4965 12.5204 15.8816 11.7598 21.334 15.4435C23.6566 14.8118 26.0521 14.4878 28.459 14.4798C30.8815 14.4958 33.3022 14.8129 35.584 15.4435C41.0044 11.7598 43.3877 12.5204 43.3877 12.5204C44.9178 16.4463 43.9523 19.348 43.6745 20.064C45.4824 22.059 46.5868 24.6009 46.5868 27.718C46.5868 38.6638 39.9249 41.0774 33.5908 41.7739C34.5812 42.6271 35.5092 44.3816 35.5092 47.0446C35.5092 50.8565 35.4736 53.9274 35.4736 54.8554C35.4736 55.5964 35.9723 56.487 37.4401 56.2002C48.8401 52.4721 56.9964 41.7846 56.9964 29.2036C56.9964 13.4698 44.2409 0.703613 28.4964 0.703613L28.5 0.705395Z" fill="white"/>
</svg>
